<svg xmlns="http://www.w3.org/2000/svg" viewBox="0 0 19.552 14.893">
  <g id="Group_14" data-name="Group 14" transform="translate(0 0)">
    <g id="Group_13" data-name="Group 13">
      <path id="Path_40" data-name="Path 40" d="M17.834,61H1.718A1.721,1.721,0,0,0,0,62.718V74.175a1.721,1.721,0,0,0,1.718,1.718H17.834a1.721,1.721,0,0,0,1.718-1.718V62.718A1.721,1.721,0,0,0,17.834,61ZM17.6,62.146,9.812,69.93,1.961,62.146ZM1.146,73.938V62.95l5.517,5.47Zm.81.81,5.521-5.521,1.934,1.918a.573.573,0,0,0,.808,0l1.886-1.886L17.6,74.748Zm16.451-.81-5.491-5.491,5.491-5.491Z" transform="translate(0 -61)" fill="#4e4e4e"/>
    </g>
  </g>
</svg>
