<svg xmlns="http://www.w3.org/2000/svg" viewBox="0 0 17.814 17.812">
  <g id="Group_15" data-name="Group 15" transform="translate(0)">
    <path id="Path_41" data-name="Path 41" d="M3597.679-575.351a8.9,8.9,0,0,1,8.9,8.454,8.9,8.9,0,0,1-8.409,9.347,8.914,8.914,0,0,1-9.385-8.484A8.916,8.916,0,0,1,3597.679-575.351Zm7.821,8.881a7.823,7.823,0,0,0-7.986-7.836,7.817,7.817,0,0,0-7.645,7.861,7.813,7.813,0,0,0,8.06,7.853A7.836,7.836,0,0,0,3605.5-566.47Z" transform="translate(-3588.775 575.351)" fill="#4e4e4e"/>
    <path id="Path_42" data-name="Path 42" d="M3748.836-491.184v-6.3h-1.375v-2.135c.3,0,.6-.007.9,0,.473.014.473.019.473-.454s0-.953,0-1.43a2.161,2.161,0,0,1,1.869-2.193c.723-.091,1.46-.063,2.191-.088.22-.007.44-.012.661-.016.1,0,.2,0,.309,0v2.2h-.228c-.4,0-.8,0-1.2,0a.652.652,0,0,0-.742.682c-.013.381,0,.762,0,1.143,0,.135.075.135.173.135.6,0,1.2,0,1.805,0h.219c-.091.719-.179,1.422-.269,2.141H3751.7v6.311Z" transform="translate(-3741.79 506.358)" fill="#4e4e4e"/>
  </g>
</svg>
