<svg id="Group_12" data-name="Group 12" xmlns="http://www.w3.org/2000/svg" viewBox="0 0 15.835 15.838">
  <path id="Path_36" data-name="Path 36" d="M16.692,4.656a5.788,5.788,0,0,0-.368-1.921A4.057,4.057,0,0,0,14.007.418,5.8,5.8,0,0,0,12.086.05C11.238.009,10.969,0,8.818,0S6.4.009,5.554.046A5.789,5.789,0,0,0,3.633.415a3.864,3.864,0,0,0-1.4.916,3.9,3.9,0,0,0-.913,1.4A5.8,5.8,0,0,0,.948,4.653C.907,5.5.9,5.77.9,7.92s.009,2.419.046,3.264a5.787,5.787,0,0,0,.368,1.921A4.057,4.057,0,0,0,3.63,15.423a5.8,5.8,0,0,0,1.921.368c.845.037,1.114.046,3.264.046s2.419-.009,3.264-.046A5.786,5.786,0,0,0,14,15.423a4.051,4.051,0,0,0,2.317-2.317,5.806,5.806,0,0,0,.368-1.921c.037-.845.046-1.114.046-3.264S16.73,5.5,16.692,4.656Zm-1.426,6.466a4.34,4.34,0,0,1-.272,1.47,2.627,2.627,0,0,1-1.5,1.5,4.357,4.357,0,0,1-1.47.272c-.835.037-1.086.046-3.2.046s-2.367-.009-3.2-.046a4.34,4.34,0,0,1-1.47-.272,2.437,2.437,0,0,1-.91-.591,2.463,2.463,0,0,1-.591-.91,4.357,4.357,0,0,1-.272-1.47c-.037-.835-.046-1.086-.046-3.2s.009-2.367.046-3.2a4.338,4.338,0,0,1,.272-1.47,2.407,2.407,0,0,1,.594-.91,2.458,2.458,0,0,1,.91-.591,4.359,4.359,0,0,1,1.47-.272c.835-.037,1.086-.046,3.2-.046s2.367.009,3.2.046a4.34,4.34,0,0,1,1.47.272,2.435,2.435,0,0,1,.91.591,2.462,2.462,0,0,1,.591.91,4.358,4.358,0,0,1,.272,1.47c.037.835.046,1.086.046,3.2S15.3,10.287,15.266,11.123Z" transform="translate(-0.898 0)" fill="#4e4e4e"/>
  <path id="Path_37" data-name="Path 37" d="M129.248,124.281a4.068,4.068,0,1,0,4.068,4.068A4.07,4.07,0,0,0,129.248,124.281Zm0,6.708a2.639,2.639,0,1,1,2.639-2.639A2.64,2.64,0,0,1,129.248,130.989Z" transform="translate(-121.327 -120.429)" fill="#4e4e4e"/>
  <path id="Path_38" data-name="Path 38" d="M364.161,89.4a.95.95,0,1,1-.95-.95A.95.95,0,0,1,364.161,89.4Z" transform="translate(-351.061 -85.705)" fill="#4e4e4e"/>
</svg>
