<svg id="Group_59" data-name="Group 59" xmlns="http://www.w3.org/2000/svg" viewBox="0 0 166.133 210.17">
  <path id="Path_88" data-name="Path 88" d="M231.433,1153.81v-12.852h20.752a89.27,89.27,0,0,1-5.794-7.005,77.364,77.364,0,0,1-5.583-8.532,60.8,60.8,0,0,1-4.213-9.113,25.647,25.647,0,0,1-1.685-8.742,24.9,24.9,0,0,1,1.79-9.8,19.153,19.153,0,0,1,5.057-7.058,21.625,21.625,0,0,1,7.69-4.266,31.176,31.176,0,0,1,9.586-1.422,32.335,32.335,0,0,1,8.9,1.159,29.984,29.984,0,0,1,7.216,3.055l-1.264,13.589a29.868,29.868,0,0,0-6.321-3.083,21.427,21.427,0,0,0-7.057-1.131,10.106,10.106,0,0,0-7.216,2.629q-2.79,2.629-2.791,7.675a20.971,20.971,0,0,0,2.212,8.518,70.707,70.707,0,0,0,5.9,10.251q3.688,5.414,8.427,11.092t9.9,10.934v4.1Z" transform="translate(-150.198 -1000.346)" fill="#e72032"/>
  <path id="Path_89" data-name="Path 89" d="M224.872,1154.481l-5.267-12.817H197.484l-5.162,12.817h-15.38l26.441-67.734h11.271l26.441,67.734Zm-14.116-39.819q-.529-1.474-1.053-3.266t-1.053-3.581h-.211q-.422,1.792-1,3.581t-1.106,3.266l-4.845,13.484H215.6Z" transform="translate(-129.005 -1001.017)" fill="#fff"/>
  <path id="Path_90" data-name="Path 90" d="M295.9,1153.81v-4.1q5.16-5.257,9.9-10.934t8.427-11.092a70.659,70.659,0,0,0,5.9-10.251,20.971,20.971,0,0,0,2.212-8.518q0-5.046-2.791-7.675a10.106,10.106,0,0,0-7.216-2.629,21.43,21.43,0,0,0-7.058,1.131,29.883,29.883,0,0,0-6.321,3.083l0-14.3a31.231,31.231,0,0,1,5.949-2.343,32.331,32.331,0,0,1,8.9-1.159,31.179,31.179,0,0,1,9.586,1.422,21.616,21.616,0,0,1,7.689,4.266,19.147,19.147,0,0,1,5.057,7.058,24.9,24.9,0,0,1,1.79,9.8,25.648,25.648,0,0,1-1.685,8.742,60.74,60.74,0,0,1-4.214,9.113,77.351,77.351,0,0,1-5.583,8.532,89.267,89.267,0,0,1-5.794,7.005H341.4v12.852Z" transform="translate(-175.27 -1000.346)" fill="#fff"/>
  <path id="Path_91" data-name="Path 91" d="M107.912,952.823v6.372h9.332v6.471h-9.332v12.793h-7.776V946.451H119.25v6.372Z" transform="translate(-99.132 -946.451)" fill="#fff"/>
  <path id="Path_92" data-name="Path 92" d="M143.73,978.459V946.451h18.663v6.372H151.506v6.372h8.88v6.471h-8.88v6.422H163.8v6.372Z" transform="translate(-116.087 -946.451)" fill="#fff"/>
  <path id="Path_93" data-name="Path 93" d="M186.563,978.459V946.451h7.776v25.335h12.843v6.672Z" transform="translate(-132.746 -946.451)" fill="#fff"/>
  <path id="Path_94" data-name="Path 94" d="M232.62,978.459V946.451H240.4v32.008Z" transform="translate(-150.66 -946.451)" fill="#fff"/>
  <path id="Path_95" data-name="Path 95" d="M124.48,1024.125a13.427,13.427,0,0,0-3.135-1.4,14.83,14.83,0,0,0-4.49-.6,11.821,11.821,0,0,0-4.114.7,9.588,9.588,0,0,0-3.311,2.032,9.877,9.877,0,0,0-2.232,3.186,9.991,9.991,0,0,0-.828,4.114,9.654,9.654,0,0,0,3.085,7.25,9.7,9.7,0,0,0,3.412,2.032,12.589,12.589,0,0,0,4.239.7,17.954,17.954,0,0,0,4.591-.527,11.331,11.331,0,0,0,3.286-1.379l-.653,6.974a11.547,11.547,0,0,1-3.412,1.253,23.447,23.447,0,0,1-4.967.452,19.253,19.253,0,0,1-6.3-1.078,17.3,17.3,0,0,1-5.619-3.186,15.928,15.928,0,0,1-4.014-5.242,16.329,16.329,0,0,1-1.53-7.25,15.9,15.9,0,0,1,5.594-12.492,17.363,17.363,0,0,1,5.594-3.185,19.033,19.033,0,0,1,6.271-1.079,23,23,0,0,1,5.318.552,13.9,13.9,0,0,1,3.763,1.4Z" transform="translate(-98.493 -973.266)" fill="#fff"/>
  <path id="Path_96" data-name="Path 96" d="M154.239,1048.635v-32.008h7.776v32.008Z" transform="translate(-120.175 -973.745)" fill="#fff"/>
  <path id="Path_97" data-name="Path 97" d="M207.222,1032.631a15.736,15.736,0,0,1-1.38,6.723,14.949,14.949,0,0,1-3.737,5.017,16.747,16.747,0,0,1-5.468,3.161,19.5,19.5,0,0,1-6.572,1.1H179.278v-32.008h10.787a19.528,19.528,0,0,1,6.572,1.1,16.767,16.767,0,0,1,5.468,3.161,14.961,14.961,0,0,1,3.737,5.017A15.736,15.736,0,0,1,207.222,1032.631Zm-7.776,0a9.434,9.434,0,0,0-.828-4.064,8.507,8.507,0,0,0-2.233-2.934,9.308,9.308,0,0,0-3.261-1.756,13.294,13.294,0,0,0-3.963-.578h-2.408v18.663h2.408a13.276,13.276,0,0,0,3.963-.577,9.3,9.3,0,0,0,3.261-1.756,8.566,8.566,0,0,0,2.233-2.91A9.387,9.387,0,0,0,199.446,1032.631Z" transform="translate(-129.913 -973.745)" fill="#fff"/>
  <path id="Path_98" data-name="Path 98" d="M249.547,1048.475l-2.508-6.672H236.5l-2.458,6.672H226.72l12.592-32.259h5.368l12.592,32.259Zm-6.723-18.964q-.251-.7-.5-1.555l-.5-1.705h-.1q-.2.853-.477,1.705t-.527,1.555l-2.308,6.422h6.723Z" transform="translate(-148.365 -973.585)" fill="#fff"/>
  <path id="Path_99" data-name="Path 99" d="M128.08,1102.807a15.744,15.744,0,0,1-1.38,6.723,14.958,14.958,0,0,1-3.738,5.017,16.73,16.73,0,0,1-5.468,3.16,19.49,19.49,0,0,1-6.572,1.1H100.136V1086.8h10.786a19.523,19.523,0,0,1,6.572,1.1,16.761,16.761,0,0,1,5.468,3.161,14.978,14.978,0,0,1,3.738,5.017A15.749,15.749,0,0,1,128.08,1102.807Zm-7.776,0a9.43,9.43,0,0,0-.828-4.063,8.514,8.514,0,0,0-2.232-2.935,9.321,9.321,0,0,0-3.261-1.756,13.288,13.288,0,0,0-3.963-.577h-2.408v18.663h2.408a13.272,13.272,0,0,0,3.963-.577,9.3,9.3,0,0,0,3.261-1.756,8.572,8.572,0,0,0,2.232-2.91A9.385,9.385,0,0,0,120.3,1102.807Z" transform="translate(-99.132 -1001.039)" fill="#fff"/>
  <path id="Path_100" data-name="Path 100" d="M157.179,1118.811V1086.8h18.663v6.371H164.955v6.371h8.88v6.472h-8.88v6.422h12.291v6.371Z" transform="translate(-121.318 -1001.039)" fill="#fff"/>
  <g id="Group_58" data-name="Group 58" transform="translate(2.48 166.286)">
    <g id="Group_50" data-name="Group 50">
      <path id="Path_101" data-name="Path 101" d="M108.148,1238.92l-1.641,4.186a.4.4,0,0,1-.4.3H102.89c-.3,0-.4-.167-.3-.436l5.76-14.7a78,78,0,0,0,2.578-7.937.353.353,0,0,1,.4-.335h4.119a.351.351,0,0,1,.4.3c.7,2.645,1.608,5.291,2.612,7.97l5.759,14.7c.1.268,0,.436-.3.436h-3.215a.394.394,0,0,1-.4-.3l-1.641-4.186Zm9.209-3.382-1.775-4.386a46.921,46.921,0,0,1-1.909-6.2c-.1-.368-.469-.368-.536,0a44.227,44.227,0,0,1-1.942,6.2l-1.742,4.386Z" transform="translate(-102.551 -1219.129)" fill="#fff"/>
      <path id="Path_102" data-name="Path 102" d="M143.868,1239.105c0,.57.234.9.67.9h.234c.235-.034.368-.034.469.2l1,2.378a.345.345,0,0,1-.167.5,4.064,4.064,0,0,1-1.54.3c-2.746,0-4.387-1.574-4.387-4.287v-19.724a.335.335,0,0,1,.368-.368H143.5a.336.336,0,0,1,.368.368Z" transform="translate(-117.175 -1218.745)" fill="#fff"/>
      <path id="Path_103" data-name="Path 103" d="M161.34,1247.688a12.255,12.255,0,0,1-3.115.436c-5.123,0-7.936-3.282-7.936-8.506,0-5.19,2.779-8.439,8.037-8.439a10.264,10.264,0,0,1,2.88.4l1.44.4a.347.347,0,0,1,.268.469l-.771,2.511a.328.328,0,0,1-.435.234l-1.138-.3a7.6,7.6,0,0,0-2.244-.368c-2.98,0-4.353,1.909-4.353,5.056,0,3.249,1.44,5.157,4.286,5.157a9.9,9.9,0,0,0,2.478-.368l1.1-.335a.349.349,0,0,1,.469.234l.771,2.512a.347.347,0,0,1-.268.469Z" transform="translate(-121.118 -1223.477)" fill="#fff"/>
      <path id="Path_104" data-name="Path 104" d="M178.538,1242.485a.335.335,0,0,1-.368.369h-2.98a.335.335,0,0,1-.368-.369v-12.558H173.18a.335.335,0,0,1-.368-.368v-2.579a.335.335,0,0,1,.368-.369h4.99a.335.335,0,0,1,.368.369Zm-.034-21.666a2.045,2.045,0,0,1-2.21,2.277,2.26,2.26,0,0,1,0-4.521A2.035,2.035,0,0,1,178.5,1220.819Z" transform="translate(-129.878 -1218.575)" fill="#fff"/>
      <path id="Path_105" data-name="Path 105" d="M200.36,1239.618c0,5.224-2.947,8.506-7.7,8.506-4.789,0-7.735-3.282-7.735-8.506,0-5.157,2.947-8.439,7.735-8.439C197.413,1231.179,200.36,1234.461,200.36,1239.618Zm-11.754,0c0,3.215,1.507,5.124,4.052,5.124,2.478,0,4.018-1.909,4.018-5.124,0-3.181-1.54-5.09-4.018-5.09C190.113,1234.528,188.607,1236.437,188.607,1239.618Z" transform="translate(-134.588 -1223.477)" fill="#fff"/>
      <path id="Path_106" data-name="Path 106" d="M215.671,1233.188c.2.4.4.368.771.033a6.007,6.007,0,0,1,4.621-2.043c3.818,0,6.128,2.378,6.128,6.33v9.878a.335.335,0,0,1-.368.368h-2.98a.335.335,0,0,1-.368-.368v-9.477c0-2.109-1.105-3.382-2.914-3.382-2.478,0-3.918,1.809-3.918,5.056v7.8a.335.335,0,0,1-.368.368h-2.981a.335.335,0,0,1-.368-.368v-15.5a.335.335,0,0,1,.368-.368h1.674a.354.354,0,0,1,.4.335Z" transform="translate(-145.479 -1223.477)" fill="#fff"/>
      <path id="Path_107" data-name="Path 107" d="M250.055,1247.688a14.053,14.053,0,0,1-3.416.436c-5.057,0-7.9-3.282-7.9-8.472,0-5.224,2.88-8.472,7.769-8.472,4.018,0,6.463,2.009,6.463,5.325,0,2.578-1.574,4.052-4.923,4.554l-5.258.8a3.548,3.548,0,0,0,3.817,2.88,9.078,9.078,0,0,0,2.646-.335l1.473-.368a.346.346,0,0,1,.469.268l.67,2.511a.347.347,0,0,1-.268.469Zm-2.579-9.51c1.172-.2,1.809-.737,1.809-1.608,0-1.34-1.038-2.043-2.847-2.043-2.21,0-3.716,1.373-3.985,4.454Z" transform="translate(-155.518 -1223.477)" fill="#fff"/>
      <path id="Path_108" data-name="Path 108" d="M282.834,1220c4.889,0,7.769,2.545,7.769,6.765a6.25,6.25,0,0,1-4.454,6.027c-.435.2-.435.369-.034.6a7.778,7.778,0,0,1,3.215,3.884l2.378,5.693c.1.268-.034.436-.3.436h-3.248a.483.483,0,0,1-.435-.268l-1.808-4.32c-1.239-3.014-2.78-4.554-6.3-4.554h-2.411v8.774a.335.335,0,0,1-.368.369h-3.047a.335.335,0,0,1-.368-.369v-22.671a.335.335,0,0,1,.368-.369Zm-1.373,10.917c3.449,0,5.291-1.373,5.291-3.918,0-2.21-1.507-3.616-3.918-3.616h-5.626v7.534Z" transform="translate(-169.01 -1219.129)" fill="#fff"/>
      <path id="Path_109" data-name="Path 109" d="M310.112,1242.485a.335.335,0,0,1-.368.369h-2.98a.335.335,0,0,1-.368-.369v-12.558h-1.641a.335.335,0,0,1-.368-.368v-2.579a.335.335,0,0,1,.368-.369h4.989a.335.335,0,0,1,.368.369Zm-.033-21.666a2.045,2.045,0,0,1-2.21,2.277,2.26,2.26,0,0,1,0-4.521A2.035,2.035,0,0,1,310.079,1220.819Z" transform="translate(-181.052 -1218.575)" fill="#fff"/>
      <path id="Path_110" data-name="Path 110" d="M327.548,1247.688a12.255,12.255,0,0,1-3.115.436c-5.124,0-7.937-3.282-7.937-8.506,0-5.19,2.78-8.439,8.037-8.439a10.261,10.261,0,0,1,2.88.4l1.44.4a.347.347,0,0,1,.268.469l-.77,2.511a.328.328,0,0,1-.436.234l-1.138-.3a7.6,7.6,0,0,0-2.244-.368c-2.98,0-4.353,1.909-4.353,5.056,0,3.249,1.44,5.157,4.287,5.157a9.9,9.9,0,0,0,2.478-.368l1.105-.335a.35.35,0,0,1,.469.234l.77,2.512a.347.347,0,0,1-.268.469Z" transform="translate(-185.762 -1223.477)" fill="#fff"/>
      <path id="Path_111" data-name="Path 111" d="M349.524,1247.688a12.25,12.25,0,0,1-3.114.436c-5.124,0-7.937-3.282-7.937-8.506,0-5.19,2.779-8.439,8.037-8.439a10.264,10.264,0,0,1,2.88.4l1.44.4a.347.347,0,0,1,.268.469l-.77,2.511a.328.328,0,0,1-.436.234l-1.138-.3a7.6,7.6,0,0,0-2.244-.368c-2.98,0-4.353,1.909-4.353,5.056,0,3.249,1.44,5.157,4.287,5.157a9.9,9.9,0,0,0,2.478-.368l1.1-.335a.35.35,0,0,1,.469.234l.77,2.512a.347.347,0,0,1-.268.469Z" transform="translate(-194.309 -1223.477)" fill="#fff"/>
      <path id="Path_112" data-name="Path 112" d="M366.722,1242.485a.335.335,0,0,1-.368.369h-2.98a.335.335,0,0,1-.368-.369v-12.558h-1.641a.335.335,0,0,1-.368-.368v-2.579a.335.335,0,0,1,.368-.369h4.989a.335.335,0,0,1,.368.369Zm-.034-21.666a2.045,2.045,0,0,1-2.21,2.277,2.26,2.26,0,0,1,0-4.521A2.035,2.035,0,0,1,366.689,1220.819Z" transform="translate(-203.069 -1218.575)" fill="#fff"/>
    </g>
    <g id="Group_56" data-name="Group 56" transform="translate(82.538 26.668)">
      <g id="Group_51" data-name="Group 51" transform="translate(39.45 0.931)">
        <path id="Path_113" data-name="Path 113" d="M317.394,1281.668c-.046.03-.092.06-.139.089C317.268,1281.767,317.306,1281.748,317.394,1281.668Z" transform="translate(-308.045 -1270.714)" fill="#fff"/>
        <path id="Path_114" data-name="Path 114" d="M320.571,1281.8c.008.008.016.02.024.027C320.58,1281.8,320.574,1281.8,320.571,1281.8Z" transform="translate(-309.335 -1270.763)" fill="#fff"/>
        <path id="Path_115" data-name="Path 115" d="M308.543,1285.062h.005c.009,0,.02-.006.028-.01Z" transform="translate(-304.657 -1272.029)" fill="#fff"/>
        <path id="Path_116" data-name="Path 116" d="M302.635,1273.457h0l-.078-.046Z" transform="translate(-302.328 -1267.502)" fill="#fff"/>
        <path id="Path_117" data-name="Path 117" d="M319.764,1278.706a.019.019,0,0,0,.02.007Z" transform="translate(-309.021 -1269.562)" fill="#fff"/>
        <path id="Path_118" data-name="Path 118" d="M321.4,1271.547a.985.985,0,0,0-.03-.139.379.379,0,0,0-.04-.091.075.075,0,0,0-.046-.037.06.06,0,0,0-.051.016.675.675,0,0,0-.125.208c-.049.108-.112.255-.2.441q-.063.139-.148.309c-.056.113-.12.236-.193.368-.146.265-.328.57-.56.908l-.007-.051c-.116.21-.229.4-.334.569l-.3.478c-.185.3-.344.571-.5.87-.1-.013-.226.133-.361.291l-.1.12c-.034.039-.068.076-.1.111s-.065.065-.094.091a.506.506,0,0,1-.083.059l.006-.025a1.323,1.323,0,0,1-.3.3,2.261,2.261,0,0,1-.368.215c-.126.061-.254.114-.375.165a2.931,2.931,0,0,0-.349.169.356.356,0,0,1,.024-.045.189.189,0,0,1,.092-.061,1.966,1.966,0,0,1-.532.158l-.06.007h-.105a.4.4,0,0,1-.043,0,.24.24,0,0,1-.064-.018.051.051,0,0,1-.025-.032,1.194,1.194,0,0,1-.277-.029,1.567,1.567,0,0,1-.3-.1,2.305,2.305,0,0,1-.3-.167,3.556,3.556,0,0,1-.295-.216c-.191-.156-.368-.328-.527-.486s-.3-.3-.424-.408l.048.019a1.07,1.07,0,0,1-.281-.312,3.276,3.276,0,0,0-.251-.378c0-.026-.009-.054,0-.053a2.559,2.559,0,0,1-.413-.652c-.124-.254-.227-.507-.313-.646l.052-.046q-.041-.089-.081-.178l.013-.026-.015.021-.034-.078a1.626,1.626,0,0,1,.112-.13.538.538,0,0,0,.117-.178l.069.025c-.02-.027.019-.128.069-.239a2.322,2.322,0,0,0,.133-.324c.115-.062-.1.292-.081.361l.2-.353.052-.092.037-.068.087-.163.076-.141c.032-.058.068-.13.113-.217.135-.4-.113.026-.091-.188.02-.042.038-.084.057-.126l.053-.128c.035-.086.07-.171.107-.258s.076-.175.12-.262.1-.176.152-.266l-.131.086c.06-.163.114-.308.168-.439s.1-.253.155-.365c.026-.056.052-.11.078-.162s.053-.1.081-.155.056-.1.086-.15.059-.1.09-.15l.058-.228c.018-.075.034-.147.051-.217l.046-.2c.015-.066.027-.13.04-.193.024-.125.048-.241.065-.351s.034-.212.048-.307c.026-.19.042-.352.053-.488s.01-.248.007-.337c-.007-.177-.035-.269-.077-.295s-.1.012-.157.09a2.032,2.032,0,0,0-.2.319c-.067.129-.137.271-.2.4s-.117.254-.156.343l-.064.145c-.053.111-.1.219-.148.324s-.095.206-.139.306-.088.2-.129.293l-.121.283q-.06.138-.115.276c-.038.09-.076.18-.112.271l-.054.135-.056.134c-.037.09-.073.18-.109.272a21.071,21.071,0,0,1-.9,1.974,1.417,1.417,0,0,0-.093-.176c-.175-.524-.744-.923-.859-1.5-.174-.23.212.181.01-.183.084-.045.122.16.155.035-.181-.364-.137-.657-.373-1.1l.061-.045a3.431,3.431,0,0,1-.353-.852,1.978,1.978,0,0,0-.313-.7,2.179,2.179,0,0,1-.1-.2,1.175,1.175,0,0,1-.054-.147,1.217,1.217,0,0,1-.036-.213.637.637,0,0,0-.056-.212,1.464,1.464,0,0,0-.229-.331l-.031-.149-.034-.15a.481.481,0,0,0-.195-.209.559.559,0,0,1-.2-.237c.031-.01-.027-.11-.076-.189-.012-.02-.023-.039-.032-.054a.164.164,0,0,1-.017-.037c0-.016.011-.016.057.016a2.44,2.44,0,0,0-.427-.491,3.561,3.561,0,0,0-.566-.408,5.833,5.833,0,0,0-.675-.338c-.241-.1-.5-.2-.774-.3a.39.39,0,0,1-.053.01l-.059.007c-.041,0-.085,0-.13,0s-.1,0-.145,0l-.172-.007H306.3c-.046,0-.09,0-.13,0a1.036,1.036,0,0,0-.11.015.289.289,0,0,0-.083.027.453.453,0,0,0-.177-.021c-.024,0-.049,0-.076,0l-.081,0-.081,0c-.027,0-.054,0-.079,0a.752.752,0,0,1-.2,0c-.009,0,0-.015.029-.03a1.433,1.433,0,0,1,.159-.056c.055-.018.153-.021.148,0l.072-.078a1.4,1.4,0,0,0-.246-.014,1.467,1.467,0,0,0-.238.024c-.039.007-.078.015-.116.023l-.029.007-.028.008-.057.017-.112.037c-.037.013-.074.029-.111.043l-.108.046-.013.006-.147.074c-.018.009-.035.017-.053.028l-.106.059-.053.03-.052.032-.107.062c-.018.01-.036.021-.054.032l-.054.033-.055.033-.056.033.072-.036.071-.035.065-.032.057-.023c.066-.025.09-.025.022.037a3.172,3.172,0,0,0-.532.339l.068-.13a3.321,3.321,0,0,0-.7.657l.07-.029.07-.028c-.04.042-.078.08-.111.116l-.1.1-.087.095-.061.071-.019.024c-.024.032-.049.067-.072.1a1.273,1.273,0,0,0-.063.119c-.01.021-.02.044-.029.067s-.016.049-.024.075a1.133,1.133,0,0,0-.04.172c-.013.117.048.027.094-.034.024-.03.045-.054.049-.042a.106.106,0,0,1-.008.046c-.007.026-.018.065-.036.119-.033.065-.062.135-.094.209-.017.037-.031.075-.046.114s-.031.078-.045.119a5.131,5.131,0,0,0-.153.521,5.466,5.466,0,0,0-.1.557c-.005.047-.01.094-.014.14l-.007.07c0,.023,0,.046,0,.07l-.007.137v.146c.041-.037.062,0,.077.064,0,.016.006.036.01.057s.009.043.012.067c.009.047.017.1.026.151l-.07.034c.029.1.05.18.064.245a1.077,1.077,0,0,1,.033.154.411.411,0,0,1,0,.1.425.425,0,0,1-.01.068.383.383,0,0,0,0,.169.778.778,0,0,0,.049.154,1.139,1.139,0,0,0,.047.106c.02.038.043.08.07.125.052.031.1.06.158.086.03.037.057.07.08.1s.023.03.035.043l.031.038a1.294,1.294,0,0,1,.087.128.767.767,0,0,1,.081.177.582.582,0,0,0,.108.178,1.1,1.1,0,0,0,.128.118l.044.034.051.034c.035.024.075.049.119.075-.115-.108-.112-.161-.049-.152a.342.342,0,0,1,.13.061.956.956,0,0,1,.086.063c.031.025.061.056.094.089-.04,0-.078-.005-.118-.01a1.19,1.19,0,0,0,.11.078l.086.055a.785.785,0,0,1,.145.107c-.06-.022-.089-.012-.071.027a.18.18,0,0,0,.023.033l.009.01,0,.005v0l0,.009a.077.077,0,0,0,.015.017.088.088,0,0,0,.023.015l-.053.017a.336.336,0,0,0-.046.022.284.284,0,0,1,.046-.008c.016,0,.031,0,.049-.006a.979.979,0,0,1,.126,0,.05.05,0,0,0,.006.015.116.116,0,0,0,.054.048.806.806,0,0,0,.087.034c.057.019.1.031,0,.031l.009,0h-.019a.216.216,0,0,0-.037,0c-.023,0-.038.01-.04.018s.008.019.04.031a.187.187,0,0,0-.068-.014l-.081,0c-.027,0-.053,0-.077-.007a.563.563,0,0,1-.075-.018c.027.009.045.021.049.037s-.012.045-.036.063l-.01.006,0,0h0l-.005,0-.025.017c-.034.023-.067.043-.1.062l-.024.014-.024.015-.047.028a.872.872,0,0,1-.086.043l.04-.043a2.668,2.668,0,0,0-.6.563,3.129,3.129,0,0,0-.39.654,4.74,4.74,0,0,0-.233.693c-.013.059-.027.119-.042.178,0,.015-.007.03-.01.045l-.008.045-.018.091-.019.092c-.007.031-.01.062-.016.093-.01.062-.022.125-.034.189.043-.021.048.1.057.214a.459.459,0,0,0,.026.136c.013.03.031.037.057.005,0,.031.008.062.012.093s.005.061.01.092c.008.061.015.122.021.181,0,.029.008.059.011.089l.011.089c0,.029.005.058.01.087l.013.086c.014.114.036.224.055.331s.046.208.078.3a2.08,2.08,0,0,0,.1.267.627.627,0,0,0,.03.059c.01.02.021.038.032.056l.032.052.017.025.018.023a.951.951,0,0,0,.074.085l.039.037c.013.011.027.021.041.031a.54.54,0,0,0,.085.048.4.4,0,0,0,.09.028c.039.044.072.085.1.123s.059.07.082.1l.064.086c.02.026.037.051.053.075a1.239,1.239,0,0,0,.2.253l-.1-.057a3.548,3.548,0,0,0,.477.31l.1.054.1.047c.062.031.123.055.181.081s.116.047.174.069.116.042.177.062.123.04.191.058l.1.029.112.027a1.153,1.153,0,0,0,.383-.039c.031-.005.064-.01.1-.015a1.118,1.118,0,0,1,.119-.009c.044,0,.093,0,.147,0l.088,0,.048,0,.053,0a.448.448,0,0,0-.051.021c-.011.006-.016.01-.017.014s0,.007.012.009a.2.2,0,0,0,.038,0,1.043,1.043,0,0,0,.128,0l.079-.006.081-.009a.648.648,0,0,0-.081.018c-.019.006-.028.012-.024.017s.022.012.057.016a1.249,1.249,0,0,0,.161.008.83.83,0,0,1,.15-.067s.015.006.011.013a1.8,1.8,0,0,0,.185-.057.18.18,0,0,0,.06-.029c.005-.01-.05,0-.13.012.005-.011-.01-.02-.063-.026a1.3,1.3,0,0,0,.307-.043c.108-.027.216-.062.313-.1.195-.07.348-.133.389-.092a5.4,5.4,0,0,0,.616-.342c.185-.119.353-.239.511-.36.318-.243.6-.489.91-.748.1-.012-.014.142-.193.3.151-.117.3-.238.446-.361.023.032-.035.093-.116.158s-.184.138-.251.2a3.156,3.156,0,0,0,.834-.656,6.564,6.564,0,0,1,.849-.772l.076-.16.041-.026c-.024-.021.071-.179.146-.271.064-.016.09.013.136.01s.109-.037.244-.186a.972.972,0,0,0,.129-.114c.135.249.27.477.394.678.286.426.566.877.888,1.328a8.4,8.4,0,0,0,.526.669,4.685,4.685,0,0,0,.654.622,2.96,2.96,0,0,0,.859.467,2.391,2.391,0,0,0,.51.112l.066.007.066,0c.046,0,.085,0,.127,0,.082,0,.163,0,.244-.009a3.077,3.077,0,0,0,.923-.22l.106-.045.12-.057c.031-.015.061-.031.091-.048s.061-.032.09-.05a3.343,3.343,0,0,0,.362-.243.459.459,0,0,0,.131-.093c.041-.04.072-.078.067-.083.14-.1.275-.2.405-.307s.254-.22.374-.335.235-.235.346-.357c.056-.061.11-.123.164-.185s.106-.125.158-.189l.017-.021.048-.062.076-.1.1-.133c.071-.1.156-.22.246-.359s.185-.294.28-.463a8.712,8.712,0,0,0,.535-1.125,6.467,6.467,0,0,0,.341-1.176A2.955,2.955,0,0,0,321.4,1271.547Zm-9.9,1.567c-.124.147-.255.283-.383.409-.256.251-.5.461-.745.669s-.5.412-.791.645c-.145.117-.3.241-.472.373s-.356.276-.563.427a11.58,11.58,0,0,1-1.258.746c-.107.053-.213.1-.32.146s-.211.085-.314.119a2.516,2.516,0,0,1-.581.125.581.581,0,0,1-.064.022c-.025.006-.053.01-.081.015a1.172,1.172,0,0,1-.182.007,2.106,2.106,0,0,1-.4-.058c-.138-.032-.274-.075-.4-.119s-.247-.089-.359-.121l-.029-.037-.015-.018-.013-.019-.053-.075c-.036-.014-.072-.03-.109-.047a1.041,1.041,0,0,1-.117-.073l-.04-.034a.261.261,0,0,1-.038-.036c-.013-.015-.026-.03-.037-.045a.342.342,0,0,1-.032-.048l.021-.007a.887.887,0,0,1-.23-.233c-.015-.021-.028-.043-.041-.062s-.026-.038-.036-.057a.538.538,0,0,0-.061-.089h.023l-.009-.014-.007-.015-.015-.031-.031-.06c-.018-.041-.035-.084-.054-.125l.045.033a1.681,1.681,0,0,1-.188-.58l-.006-.039,0-.04,0-.048c0-.052-.008-.136-.008-.188v-.078c0-.029,0-.057.006-.087l0-.053a.651.651,0,0,1,.009-.078l-.088.026c.038-.205.078-.369.113-.515.012-.036.021-.071.031-.105,0-.017.009-.034.014-.051l.017-.049.035-.109.024-.062c.009-.02.016-.042.024-.062l.021-.044c.015-.029.028-.059.043-.089l.051-.087c.01-.018.029-.045.04-.062l.018-.024.032-.043.017-.021.018-.021c.026-.028.051-.056.079-.085l.092-.082c.034-.027.07-.053.108-.08l.007.022a.444.444,0,0,1,.035-.051l.037-.049a1.017,1.017,0,0,1,.079-.091l.056-.056.031-.026.047-.04.012-.009a.1.1,0,0,1,.016-.012l.047-.03.093-.059.046-.029a.455.455,0,0,1,.048-.028l.2-.1.025-.012.029-.01.058-.02.115-.04a1.8,1.8,0,0,1,.249-.065l.024-.026a.278.278,0,0,1,.021-.076l.012-.028.022-.057.012-.028.005-.014.005-.011.043-.09,0-.011.006-.009.01-.018.02-.036a1.191,1.191,0,0,1,.137-.2.234.234,0,0,1,.056-.047l.014-.006v0l-.028-.017-.025-.021c-.012-.01-.026-.025-.041-.039l-.006-.005-.005-.007-.012-.014c-.009-.009-.018-.016-.027-.027.029.029.029.021.028.009a.135.135,0,0,1,0-.024c0-.007,0-.013.005-.012l-.01-.02-.005-.01,0-.012-.02-.048-.005-.012,0-.015-.01-.029-.01-.029-.005-.015,0-.007,0-.009c-.007-.025-.013-.048-.021-.072l-.011-.035,0-.009,0-.011,0-.022-.022-.086-.012-.041c0-.015-.008-.032-.012-.047l-.227-.062-.027-.007-.013,0-.011,0-.045-.016-.086-.03-.158-.054c-.044-.018-.085-.034-.123-.047s-.073-.025-.1-.034l-.044-.01-.037-.008a.115.115,0,0,0-.1.014l-.084-.057-.037-.026-.009-.006-.005,0-.009-.007c-.024-.021-.044-.039-.059-.055a.277.277,0,0,1-.035-.041.12.12,0,0,1-.016-.032c-.012-.037.01-.056.014-.1-.011.014-.035.015-.068,0a.55.55,0,0,1-.119-.063.715.715,0,0,1-.07-.052c-.024-.02-.049-.04-.073-.062l-.071-.07-.035-.037-.032-.039.049.039.051.036-.032-.034-.016-.018-.016-.018-.061-.072c-.021-.024-.04-.049-.059-.074l-.057-.075-.053-.078c-.017-.026-.036-.051-.051-.079-.031-.054-.066-.107-.092-.164-.01.032-.021.065-.03.1s-.016.066-.024.1a.475.475,0,0,1-.051-.2.131.131,0,0,1,.023-.075.086.086,0,0,0,.016-.066.264.264,0,0,0-.018-.064c0-.014-.012-.029-.018-.046s-.014-.037-.023-.059l-.108.04c-.01-.035-.018-.069-.026-.1s-.01-.067-.014-.1l-.006-.048c0-.015,0-.04,0-.056s0-.057,0-.086,0-.06,0-.09.006-.059.01-.088l.011-.085c0-.01,0-.019,0-.028l.032-.139c0-.014.006-.028.01-.042l.012-.045c.015-.059.03-.119.048-.178l.025-.092.027-.094c.017-.064.037-.128.054-.2.021-.142.043-.285.075-.423a3.832,3.832,0,0,1,.111-.408,2.96,2.96,0,0,1,.152-.382c.007-.015.013-.031.021-.046l.024-.045c.016-.029.03-.061.048-.089l.051-.086.054-.083a2.41,2.41,0,0,1,.248-.3,2.216,2.216,0,0,1,.3-.249l.083-.054c.028-.018.057-.033.086-.049l.043-.024.045-.021.045-.022c.015-.007.03-.015.046-.021l.094-.039a.387.387,0,0,1,.048-.018l.048-.017c.064-.024.133-.04.2-.06a3.5,3.5,0,0,1,.858-.092,3.86,3.86,0,0,1,.433.031,3,3,0,0,1,.412.085c.033.01.067.019.1.031l.1.034.095.038c.031.012.062.028.092.042a2.522,2.522,0,0,1,.348.2,2.49,2.49,0,0,1,.308.251,2.756,2.756,0,0,1,.266.294c0,.042,0,.084,0,.127-.034.057.1.13.227.221s.265.2.24.265l.048.045.047.046c.032.031.063.062.094.094.02.074.078.22-.013.123.029.053.053.091.073.122a.725.725,0,0,0,.054.076c.035.042.069.075.128.144.01.045.018.091.027.135s.017.09.024.136c.189.447.39.859.59,1.285a12.631,12.631,0,0,1,.568,1.376,16.7,16.7,0,0,0,.827,2.394c.084.2.171.4.259.6Zm-5.7-1.82.024.015-.015-.008Z" transform="translate(-302.183 -1263.741)" fill="#fff"/>
      </g>
      <g id="Group_55" data-name="Group 55">
        <g id="Group_54" data-name="Group 54">
          <g id="Group_52" data-name="Group 52" transform="translate(0 0.04)">
            <path id="Path_119" data-name="Path 119" d="M241.755,1266.238c-.043,0-.068.023-.076.073v.036l.074,0Z" transform="translate(-239.201 -1263.821)" fill="#fff"/>
            <path id="Path_120" data-name="Path 120" d="M238.806,1278.774v-.02C238.8,1278.754,238.8,1278.762,238.806,1278.774Z" transform="translate(-238.08 -1268.689)" fill="#fff"/>
            <path id="Path_121" data-name="Path 121" d="M238.809,1278.8l.011,0-.01-.013Z" transform="translate(-238.084 -1268.702)" fill="#fff"/>
            <path id="Path_122" data-name="Path 122" d="M246.191,1272.479a3.115,3.115,0,0,0,.23-.393c0-.043-.023-.068-.072-.076l.038-.073q0-.129-.551-.2a.289.289,0,0,0-.148.034,3.2,3.2,0,0,0-.516-.086,3.362,3.362,0,0,1-.519.026l-.111,0-.372.1H244.1a6.087,6.087,0,0,0-.265-1.476q-.127-.549-.322-2.255a4.823,4.823,0,0,1-.487-1.444,12.524,12.524,0,0,0-1.047-2.973q-.3-.007-.468-.593c-.221-.054-.331-.106-.33-.155a1.136,1.136,0,0,1-.214-.337l.038-.073c0-.024-.024-.038-.073-.039l0-.074.076-.109-.074,0c-.089.122-.152.182-.189.181l.032.223-.039.073-.109-.076-.075.035a.731.731,0,0,1-.232.476l0,.074.035.075c-.049,0-.075.057-.078.174a.286.286,0,0,1,.11.039l-.079.257.106.224h-.037a.555.555,0,0,0,.105.3v.037a.032.032,0,0,1-.037.036.432.432,0,0,1-.191.255.065.065,0,0,0,.072.076l-.076.109a.033.033,0,0,1-.036-.038.29.29,0,0,1-.148.034q-.182.292-.3.29c0,.018.012.028.037.029-.042.221-.093.331-.155.329a.233.233,0,0,0,.035.112l-.042.221.035.075-.075.035a5.481,5.481,0,0,1-.207,1.023l.035.074a1.5,1.5,0,0,0-.082.369.033.033,0,0,1,.036.038c-.024,0-.05.035-.076.109l.035.075H239.3a.278.278,0,0,0,.035.111,2.045,2.045,0,0,1-.158.478l0,.111.179.263-.042.212.035.075-.042.221-.011.518-.042.221a5.148,5.148,0,0,0-.459.721l.073.038-.114.146,0,.185.111,0v.037h-.074l0,.185q-.015.666-.2.662a.294.294,0,0,0,.034.149c-.034.123-.071.183-.115.182,0,.018.012.028.037.028a.219.219,0,0,1-.179.214c.05.061.192.183.159.2a.3.3,0,0,0-.147-.04l-.159,0c-.247-.005.531.086.527.233q-.315.105-.441.16a.094.094,0,0,0-.046.125c-.2.218.077.4-.053.4l0,.111-.038.073a.3.3,0,0,1,.11.039l.075-.035.035.075v.037l-.111,0,0,.075h.074c.008.01.014.02.02.029l.086,0-.048.063,0,0-.024.032.032,0a.157.157,0,0,1-.1.151l-.05.029h-.074v.032c-.1.018-.244.045-.02.089l-.039.073v.074l.035.075a.032.032,0,0,0-.038.036l.035.075c-.043,0-.068.023-.076.073a.1.1,0,0,1,.109.113c-.043,0-.069.061-.078.183a.032.032,0,0,1-.036-.038l-.075.035q.046.445.138.447l-.039.073-.111,0c-.064.073-.114.108-.15.108l0,.065.111,0v.037l-.038.073a.3.3,0,0,1,.183.078.065.065,0,0,1-.076.072l0-.074c-.043,0-.068.023-.076.073l0,.111.074,0v.037h-.074l-.007.3-.307.511a.352.352,0,0,1,.217.227l-.041.184c.059.156.119.24.18.254l0-.074h.037v.037l-.038.073q.434.009,1.053-.819a11.612,11.612,0,0,0,.573-2.55c.235-.032.436-.065.6-.1q.5-.165.549-.182c.05,0,.074.023.073.066a.283.283,0,0,0,.112-.035l.073.039a2.983,2.983,0,0,0,.371-.057l-.035-.075v-.037a.033.033,0,0,1,.036.038,3.044,3.044,0,0,1,.632-.135.282.282,0,0,0,.11.04,1.359,1.359,0,0,0,.335-.1.033.033,0,0,0,.036.038h.037l.112-.072h.037c.1.057.146.108.145.151.148,0,.244.114.289.33a.033.033,0,0,0-.038.037l0,.111c0,.049.035.075.109.076a.238.238,0,0,1-.04.11q.019.408.1.409l-.076.109.036.075a.033.033,0,0,0,.037-.037.289.289,0,0,0,.111.04l0,.074-.074,0a.293.293,0,0,0,.034.149l-.039.073,0,.111h.037v-.074h.037v.037l-.041.184c.049,0,.11.052.181.152a.23.23,0,0,1-.039.1l.034.148v.037c-.049,0-.073-.051-.071-.15h-.074v.037l.035.075a.033.033,0,0,0-.038.036l0,.074.033.186a.032.032,0,0,0-.037.036q.222,0,.213.412c.025,0,.038-.012.038-.037l.148,0v.037l-.111,0a1.178,1.178,0,0,0,.1.483,1.144,1.144,0,0,1,.356.664l.186-.033.074,0q.214.337.4.342a.279.279,0,0,1,.039-.11l.073.038h.037a3.67,3.67,0,0,0,.166-.838,1.3,1.3,0,0,0-.21-.56l.007-.332c0-.043-.023-.068-.072-.076l.038-.073v-.074a.616.616,0,0,0-.068-.3c.049,0,.076-.057.078-.174q-.025-.593-.172-.633-.1-1.177-.217-1.957h.037a.291.291,0,0,1,.147.04l.188-.144h.037l.073.038,0-.074h.037v.037l-.038.073.073.039h.074c0-.049.038-.073.112-.072a.033.033,0,0,0-.036-.038.285.285,0,0,0,.039-.11h.037q.073,0,.072.112l.111,0a5.483,5.483,0,0,1,.821-.315l-.034-.186Zm-7.33,1.553h0Zm-.6.118s-.012.007-.029.01A.037.037,0,0,1,238.262,1274.15Zm.6-.153,1.038-8.387,0,.111-.073-.039C239.825,1265.639,239.85,1265.615,239.9,1265.61Zm-.342,2.13c-.072.147-.122.219-.153.219h-.037l.12-.4.074,0Zm.312-.733c-.074,0-.112.023-.112.072v.037l.033.186a.265.265,0,0,0-.149.071c-.043,0-.068-.026-.073-.076v-.037l.074,0v-.037l-.033-.186.074,0,0-.111-.035-.065.075-.035h.037c.073.039.11.073.109.1Zm-.029-.4H239.8a.285.285,0,0,0,.039-.111l.074,0Zm-.067-.3c0-.043.026-.067.075-.072h.037l0,.148Zm.076-.109h-.037a.282.282,0,0,0-.035-.112c.05,0,.075-.035.076-.109l.074,0Zm1.509.365h.037l0,.148h-.074Zm-.042.184.075,0,0,.148h-.037a.232.232,0,0,0-.035-.112Zm-.332-1.774h.037a.284.284,0,0,0,.034.111h-.074Zm-.07-.186,0,.074a.285.285,0,0,0-.11-.039l0-.148C240.881,1264.715,240.917,1264.753,240.916,1264.79Zm-.172-.6.074,0a.279.279,0,0,0-.04.11h-.037Zm-.04.147.074,0,0,.111.033.186h-.037c-.043,0-.068-.026-.073-.076l.041-.184A.033.033,0,0,1,240.7,1264.341Zm-.137-.484h.037l0,.111-.074,0A.288.288,0,0,0,240.566,1263.857Zm2.019,7.666a.032.032,0,0,1-.036-.038l-.075.036a4.047,4.047,0,0,0,.062.557,21.954,21.954,0,0,1-2.412.309,10.154,10.154,0,0,1,.287-1.317,5.309,5.309,0,0,0,.484-1.867.033.033,0,0,1-.036-.038.033.033,0,0,0,.038-.037l0-.185.332-1.686q.4.268.4.453a4.543,4.543,0,0,1,.493,1.148,1.808,1.808,0,0,1-.044.332l.035.075-.078.183.035.074a.409.409,0,0,1-.078.183l.032.223,0,.184h.037l0,.111a.48.48,0,0,0,.177.4c.07.2.129.3.178.3q.091.52.174.522Zm1.111,5.14h-.037l0-.11h.074A.288.288,0,0,0,243.7,1276.663Z" transform="translate(-237.623 -1262.283)" fill="#fff"/>
            <path id="Path_123" data-name="Path 123" d="M238.863,1281.28" transform="translate(-238.105 -1269.672)" fill="#fff"/>
          </g>
          <path id="Path_124" data-name="Path 124" d="M253.3,1262.469a1.77,1.77,0,0,1,1.3.824,3.293,3.293,0,0,1,.489,1.831,2.58,2.58,0,0,1-.221.992l.07.114q-.092,0-.285.73a.272.272,0,0,1-.151.068l0,.111.075-.034v.037a.065.065,0,0,1-.077.071.032.032,0,0,0-.035-.038q-.075.293-.158.29a.033.033,0,0,1-.036-.038l-.495.39h-.037c.008-.049.034-.073.077-.071a.293.293,0,0,1-.032-.149l-.114.07.034.075q-.109.219-.156.217h-.037v-.037l.04-.073h-.037l-.114.07-.074,0,0-.074.073.04.039-.073,0-.037-.074,0v-.036q.154-.161.156-.216-.11-.541-.276-.565a.555.555,0,0,0,.082-.219.276.276,0,0,0-.033-.112,1.947,1.947,0,0,0,.049-.331.065.065,0,0,0-.071-.076.033.033,0,0,1-.039.036l-.07-.114,0-.148a.033.033,0,0,1,.038-.036.033.033,0,0,0-.035-.038l.05-.368.01-.3a3.531,3.531,0,0,0-.082-.817h-.037q-.379-.014-.89,2.115a35.22,35.22,0,0,0-.45,4.309.279.279,0,0,1,.112-.033v.037a10.774,10.774,0,0,1,2.04-.112v.037l.075-.035c.123,0,.184.032.182.081l.075-.034.148.005c.049.008.073.034.071.076l.075-.034h.037a.362.362,0,0,1,.364.2.033.033,0,0,1-.038.036l.034.075-.173.7a1.632,1.632,0,0,0-.49.241l-.111,0,.04-.072-.073-.04a.8.8,0,0,0-.085.293h-.037a.277.277,0,0,0-.068-.15l.039-.073-.148-.005c0,.1-.042.147-.116.144l-.144-.116q-.005.148-.526.2a.3.3,0,0,0-.11-.041,4.014,4.014,0,0,1-.746.159.3.3,0,0,0-.146-.043h-.037a.77.77,0,0,0-.3.211c-.074,0-.111.009-.112.033q0,.092-.057.553a.275.275,0,0,1,.033.112.032.032,0,0,1-.038.036l.027.26c0,.142-.007-.159-.032-.129.015.254.048-.322.043-.18l-.035.981c-.007.172,0,.444.007.815h-.037l.034.075-.033.925.029.223a.292.292,0,0,0-.041.109.616.616,0,0,1,.064.3l-.021.591a.033.033,0,0,1-.038.036l.034.075-.028.777-.045.22a1.353,1.353,0,0,1,.063.3q-.132.846-.252.842l0-.074-.074,0c0,.074-.029.11-.078.108q-.165-.034-.321-.344l-.185-.007-.075.034a5.873,5.873,0,0,1-.251-1.267l.111,0v-.037l-.148-.005a.033.033,0,0,1-.038.036,1.9,1.9,0,0,0-.025-.334h.037a.282.282,0,0,0,.109.041l0-.074a.066.066,0,0,1-.072-.076h-.037l-.075.034,0-.074.074,0v-.037l-.147-.043.006-.148c.047-.122.111-.181.191-.178l-.172-.376a.033.033,0,0,0,.038-.035.27.27,0,0,0-.11-.041c0-.05.04-.073.114-.07l0-.074a.034.034,0,0,0-.036-.038l.04-.072.009-.259c-.049,0-.073-.015-.073-.04l0-.111h-.037l0-.111a.032.032,0,0,1,.039-.035l-.035-.075,0-.074a.29.29,0,0,1,.042-.147.1.1,0,0,0-.107-.115.29.29,0,0,1,.042-.147,1.971,1.971,0,0,1-.025-.334l.05-.368-.075.034h-.037v-.037c0-.037.04-.073.115-.107a.774.774,0,0,0-.165-.562v-.037l.073.04h.037v-.037l-.074,0,.04-.073.011-.3.029.2a.065.065,0,0,1-.071-.076l0-.074a.289.289,0,0,1,.042-.146.293.293,0,0,1-.032-.149c0-.018.016-.092.045-.221a.065.065,0,0,1-.071-.076v-.037c.061-.145.1-.218.119-.218l-.093.529-.373.06a.065.065,0,0,0-.071-.076.291.291,0,0,1-.041.109l-.073-.04c-.1.009-.15.044-.152.106h-.037a.065.065,0,0,1-.072-.076l-.075.034-.864.31c0-.074-.007-.4-.177-.458l.074-.255.609.057a.293.293,0,0,1-.109-.041l0,.074-.037,0q-.046,0-.141-.19v-.037c.1,0-.191.122-.185-.051-.043-.186.278-.489.279-.5-.276.437-.421.174-.4.174l-.124-.133-.18-.394c.327-.167,1.674-.394,2.149-.568l0-.175a.855.855,0,0,1-.027-.26q.027,0,.156-.217l0-.111a.292.292,0,0,1-.109-.041l.117-.181,0-.074-.111,0,.186-2.1a.293.293,0,0,1-.032-.149c.043,0,.084-.1.122-.292a.272.272,0,0,1-.033-.112,3.493,3.493,0,0,0,.178-.844h.037l-.034-.075v-.037a2.5,2.5,0,0,1,.254-.879l-.034-.075a8.055,8.055,0,0,1,1.421-2.466q.533-.389.54-.61A1.305,1.305,0,0,1,253.3,1262.469Zm-3.93,10.514v.037a.281.281,0,0,1,.109.041l.04-.073v-.037A.293.293,0,0,1,249.374,1272.983Zm.19-.141q.006.074.072.077h.037a.065.065,0,0,0-.071-.077Zm4.321-10.056a3.966,3.966,0,0,1,.53.686l.109.078h.037c-.068-.175-.151-.265-.249-.268v-.037a.033.033,0,0,1,.038-.036l-.249-.3C254.081,1262.83,254.009,1262.791,253.886,1262.786Zm.7,1.1,0,.111a.289.289,0,0,1-.042.146.755.755,0,0,1,.173.34l-.081.182c0,.111.067.2.213.266l0-.037a.272.272,0,0,1-.033-.113h.037a.6.6,0,0,1-.065-.261.29.29,0,0,0,.042-.146c-.073-.028-.107-.1-.1-.226l.008-.222Zm-.058,2.663-.043.147v.037h.037l.042-.147v-.037Zm.134-.661,0,.074-.045.221v.037h.037a.3.3,0,0,1,.081-.182l.005-.148Zm.06-.664-.042.147,0,.074h.037a.378.378,0,0,1,.044-.183v-.037Zm-.05.368,0,.148c0,.049.028.075.071.076l.04-.073,0-.074a.065.065,0,0,1-.072-.076Zm.262.444.074,0,0,.111-.074,0Z" transform="translate(-241.601 -1262.315)" fill="#fff"/>
          <path id="Path_125" data-name="Path 125" d="M262.309,1271.447a1.844,1.844,0,0,1,1.611.812,1.721,1.721,0,0,1,.349.97h-.037a1.345,1.345,0,0,1,.067.3,3.237,3.237,0,0,1-.321,1.178.885.885,0,0,0-.193.365l.032.223q0,.129-.342.437,0,.092-.341.362a2.364,2.364,0,0,1-.938.609,4.843,4.843,0,0,1-1.194.455q.027,1.721.511,2.046l.406.009a13.25,13.25,0,0,0,2.04-1.955.754.754,0,0,1,.375-.251l0,.111.075-.036.074,0,.068.26-.041.184c.17.127.254.2.254.228l-.543,1.135a.1.1,0,0,1-.109-.114h-.037l0,.074a.286.286,0,0,0,.111.04v.037q-.153.256-.19.255h-.037l0-.111h-.074v.036a.032.032,0,0,0,.036.038l-.038.073v.037l.074,0a.1.1,0,0,1-.113.109v.037l.111,0v.037a.065.065,0,0,1-.076.072.033.033,0,0,0-.036-.038c0,.037-.038.073-.113.109l-.073-.039a.065.065,0,0,1-.076.072.065.065,0,0,0-.072-.075.889.889,0,0,1-.269.438.033.033,0,0,1,.037.038l-.185,0,.035.075h-.037l-.073-.038q0,.038-.226.18a.282.282,0,0,1,.035.112l-.075.036-.073-.038c0,.062-.127.158-.376.288l-.073-.039-.148.034-.111,0-.113.109q-1.145-.1-1.141-.284h-.037l0,.074-.614-.679-.075.035a.065.065,0,0,1-.072-.075l0-.074h.074v-.036q-.1,0-.215-.338h.037l-.211-.523c0-.123-.021-.185-.07-.186a.033.033,0,0,1,.038-.036.81.81,0,0,0-.1-.372c.023-.2.049-.3.081-.295l-.069-.224.039-.073c-.05-.248-.1-.372-.14-.373H259.3l-.075.035q0-.176-.474-.306l-.035-.075h.037l.073.039h.037v-.037h-.074l.038-.073a.066.066,0,0,0-.073-.076c-.049.005-.075.029-.075.073l-.221-.042v-.037l.039-.073c-.1,0-.147-.04-.145-.114l.075-.035v.074h.074a.065.065,0,0,0,.076-.072l.184.041h.074c0-.08.089-.152.263-.216q.063-.332.3-.326a.522.522,0,0,1,.043-.258.065.065,0,0,1-.073-.075h.075l0-.222.041-.184-.074,0,0-.148q.148,0,.15-.108l-.035-.075a.283.283,0,0,0,.04-.11l-.033-.186c.037,0,.125-.084.265-.253q-.052-.149-.108-.15a.736.736,0,0,1,.153-.219l-.072-.113q.1-.257.153-.255l0,.074h.037v-.037l-.035-.075q.072-.294.155-.293l-.035-.075a2.937,2.937,0,0,0,.421-.657c.056,0,.144-.12.267-.365.043,0,.156-.108.34-.326a1.952,1.952,0,0,0,.526-.359A2.835,2.835,0,0,1,262.309,1271.447Zm-3.743,5.433.111,0v.074h-.037A.065.065,0,0,1,258.567,1276.88Zm2.595-.2,0,.074.186-.033v-.037Zm.145-1.588a2.124,2.124,0,0,0,1.284-1.194,1.345,1.345,0,0,0,.195-.477q0-.138-.364-.267-.471-.01-1.071,1.643A.973.973,0,0,0,261.306,1275.089Zm.6,1.345h-.037l-.073-.038a.449.449,0,0,0-.154.293.506.506,0,0,0,.3-.141h.037l.073.038a.533.533,0,0,1,.412-.25l0-.074c-.123,0-.185-.016-.184-.041A.643.643,0,0,1,261.907,1276.434Zm.819-.242.074,0a.226.226,0,0,0,.153-.219h.037a.033.033,0,0,1,.036.038q.064,0,.189-.181c.1,0,.148-.021.15-.071v-.074h-.037Q262.737,1276.072,262.726,1276.192Z" transform="translate(-245.685 -1265.807)" fill="#fff"/>
          <path id="Path_126" data-name="Path 126" d="M276.312,1272.6l.073.009a.482.482,0,0,0,.461.535,1.1,1.1,0,0,0,.139.425l.078-.029q.2.023.039,1.643a2.924,2.924,0,0,1,.028.747l-.054.143.021.152-.057.179a2.276,2.276,0,0,1,.036.674l-.037,0,.028.077-.012.111a.032.032,0,0,1-.041.032q.034.283-.006,1.712l-.037,0,.028.078-.111.992.061.119a.033.033,0,0,1-.041.033.033.033,0,0,0,.033.041q-.074.326-.111.323l.028.078q-.072.476-.126.469l.028.078c-.065.365-.148.542-.246.531l-.069-.044a.065.065,0,0,1-.082.065,1.7,1.7,0,0,0-.637-.294,3.157,3.157,0,0,1-.15-.65.033.033,0,0,0,.041-.033l-.111-.012.016-.147.037,0,.069.045,0-.037-.131-.164-.078.029-.037,0c.061-.1.117-.161.167-.167a.033.033,0,0,0,.033.041.032.032,0,0,1,.041-.032,1.269,1.269,0,0,1-.151-.315l.073.008.025-.221a.1.1,0,0,1-.1-.123l.045-.069a.28.28,0,0,1-.024-.114.033.033,0,0,0,.041-.033.275.275,0,0,0-.106-.049l.057-.18a.282.282,0,0,0-.024-.115l.053-.143a.721.721,0,0,0-.069-.379l.037,0a1.034,1.034,0,0,0-.065-.417.033.033,0,0,1,.041-.032l-.029-.077.009-.074.045-.069a.065.065,0,0,1-.065-.082.065.065,0,0,0,.081-.065l.009-.073a2.54,2.54,0,0,1-.024-.45l.037,0,0-.037-.037,0a.285.285,0,0,1-.114.024l-.029-.078.042-.368c.012-.048.039-.07.082-.065l-.029-.078c.012-.049.038-.07.082-.065a.033.033,0,0,0-.033-.041c.07-.178.105-.274.107-.286a.4.4,0,0,1-.053-.192l.037,0a2.53,2.53,0,0,1-.061-.453.283.283,0,0,0,.049-.106.388.388,0,0,1-.249-.437.6.6,0,0,0-.045-.266l.045-.07a.839.839,0,0,1-.045-.265l.045-.07-.029-.078.045-.069-.02-.152a1.994,1.994,0,0,0,.078-.364.1.1,0,0,0,.123-.1l-.07-.045c.041-.144.074-.215.1-.212l-.028-.078,0-.037.086-.1-.029-.077a.249.249,0,0,1,.237-.123.284.284,0,0,1,.213-.237l.037,0-.008.073.073.008.078-.028-.028-.078.012-.111.069.045.037,0Zm-.741,1.63.016.188-.074-.008a1.073,1.073,0,0,1,.008.261l.037,0a.273.273,0,0,1,.155-.057l.008-.073-.073-.009.065-.253-.069-.045Zm-.1.584-.008.073a.032.032,0,0,0,.032.041l-.045.069-.016.147.073.009a.375.375,0,0,1,.057-.18l-.037,0,.045-.07a.066.066,0,0,0-.065-.082Zm.246-1.2a.065.065,0,0,1-.081.065l-.009.074.073.008a.3.3,0,0,1,.049-.106l0-.037Zm-.057.179,0,.037c0,.05.022.077.065.081l.037,0a.268.268,0,0,1-.024-.114Zm.107-.285,0,.037.07.045.037,0,0-.037A.278.278,0,0,1,275.764,1273.51Z" transform="translate(-252.269 -1266.257)" fill="#fff"/>
          <path id="Path_127" data-name="Path 127" d="M286.7,1268.915h.037l0,.074.112-.071a.453.453,0,0,1,.216.264l-.038.073q0,.111.329.193v.037l-.042.221a.3.3,0,0,1,.035.112c-.021.1-.046.147-.078.146a.282.282,0,0,1,.035.112,4.037,4.037,0,0,1-.088.664l.035.075a4.241,4.241,0,0,0-.282.667l0,.111h-.075l0-.074.039-.073-.074,0a.238.238,0,0,1-.077.147c.056,0,.091.064.107.187a.033.033,0,0,0-.038.037.3.3,0,0,0,.147.04v.037c-.037,0-.1.072-.19.218-.049,0-.073-.014-.073-.039v-.036H286.7c0,.074-.027.11-.076.109l.035.074,0,.111h-.074v.074l.074,0,0,.074a.3.3,0,0,1-.04.147l0,.111-.074,0,.035.075v.036l-.073-.038c-.04.147-.091.22-.152.219.047.081-.4.855-.4.923h-.074l.033.186a1.763,1.763,0,0,0-.193.329h-.037l.107.187q-.139.025-.347.659c-.025,0-.05.036-.076.109l.074,0,0,.074q-.157,0-.269.475l.033.186q-.234.1-.464.915-.153.256-.19.255l.035.075v.037q-.2.1-.541,1.062l.035.075,0,.148q-.664,1.244-1.137,1.234l-.185,0q-.869-.018-1.463-2.51h.037c0-.124-.117-.286-.359-.489l.041-.184a1.729,1.729,0,0,0-.139-.41l.038-.073c-.021-.173-.056-.26-.105-.261l.04-.184a3.178,3.178,0,0,1-.1-.594.032.032,0,0,1,.037-.036l-.06-.631h.037l-.035-.075,0-.185a.033.033,0,0,1,.038-.037l-.035-.075a.033.033,0,0,1,.038-.036l-.035-.075.007-.3a.1.1,0,0,0,.113-.109l-.107-.187a.066.066,0,0,0,.076-.073l-.034-.149.038-.073-.035-.075a.234.234,0,0,0,.04-.11l-.033-.186c.049,0,.075-.06.078-.183l-.074,0,0-.074c.068,0,.119-.108.155-.33.123,0,.187-.107.192-.329.049,0,.075-.048.077-.146h.074c0,.074.023.112.072.112h.037l0-.148h-.037a1.088,1.088,0,0,0,.042-.258h.037l.073.038a.23.23,0,0,0,.04-.11l.111,0-.076.109,0,.074.074,0-.043.258q.232.412.4.416a2.662,2.662,0,0,1,.241.819h.037l.075-.035a.1.1,0,0,0,.109.114,36.064,36.064,0,0,0,.357,4.041h.074c1.06-2.265,2.149-4.394,2.334-4.989l.984-2.391A1.833,1.833,0,0,1,286.7,1268.915Zm-5.69,4.036a.293.293,0,0,1-.04.147l.073.038,0-.185Zm.025.555a.288.288,0,0,0-.044.333h.037l.041-.184,0-.148Zm.082-.368c0,.049-.039.073-.112.071v.037l.111,0,.039-.073v-.037Zm-.09.738-.038.073v.037c.049,0,.073.038.072.113h.037l0-.148A.065.065,0,0,0,281.027,1273.877Zm-.054.813v.037c.021.18.031.279.031.3l-.04.147a.434.434,0,0,1,.07.224l-.076.109v.037a.241.241,0,0,1,.111.039l.115-.182,0-.111c-.062,0-.1-.063-.107-.187.024,0,.062-.048.114-.146Q281.193,1274.8,280.973,1274.69Zm.084-.479a.449.449,0,0,1-.042.221l.074,0,.041-.184v-.037Zm-.071,1.627,0,.074c0,.124.027.185.07.186l-.041.184,0,.222.111,0v-.037l-.034-.149a.229.229,0,0,0,.04-.11.233.233,0,0,1-.035-.112h.037Q281.05,1275.838,280.986,1275.837Zm.306-3.916c.011.05.035.075.073.076h.037a.065.065,0,0,0-.072-.075Z" transform="translate(-254.383 -1264.822)" fill="#fff"/>
          <path id="Path_128" data-name="Path 128" d="M293.386,1274.553l.075.035.333-.012c0,.056.175.086.521.093a.255.255,0,0,1,.254-.156.033.033,0,0,1,.038.036l.073-.04.3-.01q.237.436.422.43.054.22.421.393a1.943,1.943,0,0,1,.048.331c.009.259.005.531-.009.815a6.616,6.616,0,0,1,.061.7,2.828,2.828,0,0,1-.055.557,2.9,2.9,0,0,1,.051.405,1.917,1.917,0,0,1-.026.334q.069,2.006.715,2.492l.231.251a.431.431,0,0,1,.081.219v.037a.624.624,0,0,1-.285.306H296.6l-.075-.034a2.03,2.03,0,0,1-.25.268,1.772,1.772,0,0,0-.673-.2l0-.074.035-.075-.074,0a.633.633,0,0,0-.219.082.268.268,0,0,0-.079-.145l0-.111.111,0v-.037a.835.835,0,0,1-.378-.21l.035-.075a.033.033,0,0,1-.038-.036h.037q0-.065-.194-.252l-.043-.184a.032.032,0,0,0,.035-.038q-.185.007-.24-.51h.037c-.037-.172-.1-.256-.194-.252.022-.075.046-.113.07-.114a.292.292,0,0,1-.041-.109.288.288,0,0,0,.034-.112.066.066,0,0,1-.077-.072.033.033,0,0,1,.036-.038,1.373,1.373,0,0,1-.084-.293.065.065,0,0,0,.072-.076v-.037l-.148,0c0,.037-.034.075-.107.115l-.076-.034a3.367,3.367,0,0,1-.458.682l.04.073a1.276,1.276,0,0,0-.352.53.292.292,0,0,1,.042.147h-.037l-.075-.035q-.28.454-.428.459l.04.073v.037a3.1,3.1,0,0,1-.935.81,2.588,2.588,0,0,1-.77.211l-.075-.035a.433.433,0,0,1-.219.082,2.4,2.4,0,0,1-.409-.06l-.072.039q-.672-.152-.683-.458-.24.008-.467-.687l0-.111a.033.033,0,0,1,.035-.038l-.08-.182a7.062,7.062,0,0,1,.507-2.461.3.3,0,0,0,.1-.262.433.433,0,0,1-.081-.219l0-.074a10.476,10.476,0,0,0,.631-1.021,4.952,4.952,0,0,1,1.789-1.533l.012.065a.066.066,0,0,0,.072-.077l-.074,0c0-.049.028-.074.072-.076h.037l0,.111.177-.229a.292.292,0,0,0,.149.032,1.889,1.889,0,0,1,.436-.237c0-.025.023-.038.073-.04l.26.028A.281.281,0,0,0,293.386,1274.553Zm-3.313,2.705v.037h.037q.432-.357.423-.607A3.825,3.825,0,0,0,290.073,1277.259Zm3.4-1.116.075.034a6.468,6.468,0,0,1-1.152.928,5.6,5.6,0,0,0-1.641,2.87v.037q.02.591.242.584.49-.016,1.847-2.284.418-.774.8-1.619a1.871,1.871,0,0,0,.411-.976h-.037a.646.646,0,0,0-.326.2C293.618,1275.916,293.547,1275.992,293.478,1276.142Zm-2.728.316,0,.11a.358.358,0,0,0,.36-.309c.244-.082.364-.185.359-.308a.294.294,0,0,1-.041-.11,6.616,6.616,0,0,0-.645.615Zm.936-.772v.036l.148,0a.28.28,0,0,1,.109-.041l0-.074H291.9A.322.322,0,0,1,291.685,1275.686Zm.215-.193h.037a.066.066,0,0,0,.072-.077h-.037C291.923,1275.424,291.9,1275.45,291.9,1275.493Zm.181-.117a.294.294,0,0,1-.032.149h.037c.037,0,.084-.053.143-.153Zm.182-.081v.037h.037c.171-.074.255-.126.254-.157l-.185.007C292.334,1275.182,292.3,1275.22,292.264,1275.3Zm.366-.123v.037l.148,0v-.037Zm.324-.27-.035.075h.037a.285.285,0,0,1,.109-.041v-.037Z" transform="translate(-257.68 -1266.994)" fill="#fff"/>
          <g id="Group_53" data-name="Group 53" transform="translate(18.233)">
            <path id="Path_129" data-name="Path 129" d="M270.72,1268.352l.009-.086a.157.157,0,0,0-.014.074Z" transform="translate(-268.727 -1264.57)" fill="#fff"/>
            <path id="Path_130" data-name="Path 130" d="M269.881,1277.969l-.036.074.337.252a3.515,3.515,0,0,0,.448-.374l.377-.906.016-.057h-.007a14.854,14.854,0,0,1-.16-2.8l-.006-.518-.038-.073a.033.033,0,0,0,.037-.038v-.111l-.037-.074h.037c-.006-.6-.048-3.094.04-4.119a.033.033,0,0,1-.037-.037c.037,0,.048-1.272.058-1.494a1.793,1.793,0,0,1,.371.07.288.288,0,0,1,.148-.039h.037l.112.073c0-.074.023-.111.073-.112h.074l.075.036v-.037l.075.036h.111l.073-.038a.033.033,0,0,0,.037.037.287.287,0,0,1,.036-.111c.049,0,3.231-.139,3.232-.089l.074-.038.075.036a.3.3,0,0,0,.035-.148c.037,0,.075.048.112.147q.111,0,.257-.187l1,.02v.148h.075a.309.309,0,0,1,.219-.3v.074h-.074v.111h.019a.16.16,0,0,0,.1-.035,1.862,1.862,0,0,1,.3-.2.165.165,0,0,0,.1-.15l0-.159a.164.164,0,0,1,.032-.1l.045-.062a.16.16,0,0,0,.031-.1v-.13a.156.156,0,0,0-.018-.072l-.02-.04a.032.032,0,0,0,.036-.037v-.037c0-.071-.1-.119-.312-.142a.154.154,0,0,0-.057,0h0a.17.17,0,0,1-.119-.011c-.071-.031-1.2-.073-1.442-.083a2.374,2.374,0,0,1-.444.042l-3.343.128a.033.033,0,0,1-.037.037.033.033,0,0,0-.038-.037h-.111c-.183,0-.421-.007-.711-.024a13.207,13.207,0,0,0,.114-2.16.267.267,0,0,0-.075-.147l-.074.037a.4.4,0,0,0-.076-.184l.035-.222-.075-.11,0-.3a.784.784,0,0,1-.186-.072q-.161-.332-.225-.331a1.31,1.31,0,0,1,.071-.3h-.074v-.037q0-.074.11-.075v-.074h-.074c-.049,0-.073.038-.073.112h-.111l.036-.074h-.074a1.056,1.056,0,0,1-.034.26h.074c-.036.075-.073.112-.109.113s-.075-.036-.075-.11a.393.393,0,0,0-.218.372c-.136,0-.233.126-.292.373a.033.033,0,0,1,.037.037v.037c0,.074-.048.111-.147.112a.29.29,0,0,0,.039.148c-.011.172-.047.259-.108.26l.037.074V1264c-.079.087-.052-.163-.161.541a.033.033,0,0,1,.037.037,2.072,2.072,0,0,0-.071.26.283.283,0,0,0,.038.111H269.4a2,2,0,0,1-.1.741,1.091,1.091,0,0,0,.059.24c.032-.148.074-.254.126-.218l-.02.2a.061.061,0,0,1,.059-.037.033.033,0,0,0-.037-.036,2.193,2.193,0,0,1,.034-.222h.037l.039.184-.035.148a.033.033,0,0,1,.037.037q-.056,0-.108.26-.065,0-.075-.073c0-.043.024-.068.073-.075a.261.261,0,0,0-.032-.1l0,.049h-.116l.008-.044-.041.021.012.023H269.3l-.185.039a.033.033,0,0,0-.037-.037.294.294,0,0,0-.111.038l-.482-.069a.676.676,0,0,0-.442.153l.038.073v.074a.7.7,0,0,0-.295.151.849.849,0,0,1-.18.446l-.074-.036h-.074v.074l.038.074a.033.033,0,0,0-.037.037v.037a.3.3,0,0,1,.111.036.032.032,0,0,1,.037-.037.28.28,0,0,0,.038.111c-.024,0-.049.037-.073.112q.225.368.337.366l-.036.075h.037l.073-.037q0,.12.964.175a.293.293,0,0,0,.111-.039c0,.05.062.073.186.072l.013,1.272a4.671,4.671,0,0,0-.175.89v.037l.039.185c-.024,0-.037.037-.036.111l.038.074h-.037a.292.292,0,0,0,.038.147l-.073.112.038.184-.073.038a.033.033,0,0,0,.037.037c-.023.173-.034.272-.034.3s.095,1.712.12,1.712v.111a.033.033,0,0,0,.037.037c0,.148-.035.222-.109.223l.113.184a.284.284,0,0,1-.111.038v.037h.074v.074l-.035.185.075.036a.033.033,0,0,1-.037.037,1.372,1.372,0,0,0,.077.3c-.031,0-.054.087-.071.26a6.528,6.528,0,0,1-.045.987c.024,0,.157-.852.156-.877h.074l-.119.876h-.075a7.2,7.2,0,0,1,.2,1.071l-.035.185q.038.111.075.11.05.407.153.406a.3.3,0,0,1-.036.111A3.429,3.429,0,0,0,269.881,1277.969Zm1.164-11.79h0C271.042,1266.136,271.043,1266.144,271.046,1266.179Zm-.761-3.514a.065.065,0,0,1,.075.073h-.037c-.043,0-.068-.024-.075-.073Zm-.434.929h.037v.037c0,.074-.023.111-.073.112Zm-.141.668a.3.3,0,0,0,.072-.186l.074.036q-.071.3-.145.3Zm.076.184a.3.3,0,0,0,.039.148c-.024,0-.037.025-.036.074h-.037a.3.3,0,0,0-.038-.148Q269.711,1264.456,269.785,1264.446Zm-.143.483c.037,0,.086-.051.147-.15v.074l.049-.534h-.074Zm-.119-.739h.074l-.035.149h-.037Zm.029,1.094.144-.445a.313.313,0,0,1,0-.3.335.335,0,0,1,.188.294l-.147.113a.431.431,0,0,0,.076.221q-.147.177-.145.223h-.074A.291.291,0,0,0,269.553,1265.284Zm-1.456,2.259a.283.283,0,0,0-.111.038l-.037-.073.148,0Zm.148.036h-.037c-.043,0-.068-.024-.075-.073h.111Zm.111-.075a.066.066,0,0,1-.073.075v-.037q0-.065.073-.075Zm.335.182-.038-.074-.074.038h-.037a.3.3,0,0,0-.039-.148l-.074.038h-.037v-.074a.291.291,0,0,1,.148.036l.074-.038.112.073.073-.038a.277.277,0,0,0,.038.111C268.838,1267.64,268.788,1267.665,268.69,1267.684Zm.37.033h-.111c0-.043.024-.068.073-.074h.037Zm.282-1.247a.065.065,0,0,1-.07.075c.006-.047.024-.262.057-.464l.01.019Z" transform="translate(-267.461 -1262.217)" fill="#fff"/>
            <path id="Path_131" data-name="Path 131" d="M270.555,1268.3c-.005.023-.01.048-.015.073l.033-.017Z" transform="translate(-268.659 -1264.582)" fill="#fff"/>
          </g>
        </g>
      </g>
    </g>
    <g id="Group_57" data-name="Group 57" transform="translate(22.426 34.212)">
      <path id="Path_132" data-name="Path 132" d="M140.765,1280.108l-.444,1.132a.106.106,0,0,1-.109.081h-.869c-.082,0-.109-.045-.082-.118l1.558-3.975a20.987,20.987,0,0,0,.7-2.146.1.1,0,0,1,.109-.091h1.114a.1.1,0,0,1,.109.082c.19.715.434,1.431.706,2.155l1.558,3.975c.027.073,0,.118-.082.118h-.869a.106.106,0,0,1-.109-.081l-.444-1.132Zm2.491-.915-.48-1.186a12.756,12.756,0,0,1-.516-1.676c-.027-.1-.126-.1-.145,0a11.907,11.907,0,0,1-.525,1.676l-.471,1.186Z" transform="translate(-139.252 -1274.729)" fill="#fff"/>
      <path id="Path_133" data-name="Path 133" d="M151.313,1280.159c0,.154.064.244.181.244h.064c.064-.009.1-.009.127.054l.271.643a.094.094,0,0,1-.045.136,1.1,1.1,0,0,1-.417.081,1.074,1.074,0,0,1-1.186-1.159v-5.334a.091.091,0,0,1,.1-.1h.806a.091.091,0,0,1,.1.1Z" transform="translate(-143.552 -1274.625)" fill="#fff"/>
      <path id="Path_134" data-name="Path 134" d="M154.333,1276.174a1.467,1.467,0,0,1,1.576-1.612,1.718,1.718,0,0,1,.6.109l.163.054a.1.1,0,0,1,.064.127l-.218.67a.089.089,0,0,1-.118.064l-.145-.045a.894.894,0,0,0-.344-.063c-.353,0-.571.263-.571.7v.589h1.014a.091.091,0,0,1,.1.1v.7a.091.091,0,0,1-.1.1h-1.014v3.4a.09.09,0,0,1-.1.1h-.806a.091.091,0,0,1-.1-.1v-3.4h-.444a.091.091,0,0,1-.1-.1v-.7a.091.091,0,0,1,.1-.1h.444Z" transform="translate(-144.906 -1274.562)" fill="#fff"/>
      <path id="Path_135" data-name="Path 135" d="M159.777,1278.151a3.362,3.362,0,0,1,.987-.136c1.223,0,1.974.634,1.974,1.73v2.653a.09.09,0,0,1-.1.1h-.453a.11.11,0,0,1-.118-.081l-.072-.281c-.054-.126-.109-.126-.227-.018a1.6,1.6,0,0,1-1.24.48c-1.005,0-1.567-.516-1.567-1.367s.58-1.395,1.648-1.395h1.132v-.054c0-.552-.353-.851-1.024-.851a2.487,2.487,0,0,0-.706.091l-.326.1a.094.094,0,0,1-.127-.072l-.2-.67a.094.094,0,0,1,.073-.126Zm.833,2.472c-.444,0-.652.208-.652.516,0,.353.244.571.679.571.715,0,1.1-.353,1.1-1.024v-.063Z" transform="translate(-146.918 -1275.905)" fill="#fff"/>
      <path id="Path_136" data-name="Path 136" d="M168.028,1276.147a2.665,2.665,0,0,1-.145,1.014c-.045.126.037.19.145.09a1.5,1.5,0,0,1,1.2-.516c1.186,0,1.9.879,1.9,2.282a2.036,2.036,0,0,1-2.092,2.3,2.806,2.806,0,0,1-1.132-.226l-.8-.326a.125.125,0,0,1-.082-.118v-5.823a.091.091,0,0,1,.1-.1h.806a.091.091,0,0,1,.1.1Zm.263,4.1a1.863,1.863,0,0,0,.742.154c.689,0,1.1-.516,1.1-1.385s-.4-1.377-1.05-1.377c-.725,0-1.06.58-1.06,1.349v1.132Z" transform="translate(-150.053 -1274.625)" fill="#fff"/>
      <path id="Path_137" data-name="Path 137" d="M178.072,1282.479a3.79,3.79,0,0,1-.924.118,2.3,2.3,0,0,1-.036-4.582c1.086,0,1.748.544,1.748,1.44,0,.7-.426,1.1-1.331,1.231l-1.421.218a.959.959,0,0,0,1.032.779,2.45,2.45,0,0,0,.716-.09l.4-.1a.093.093,0,0,1,.126.073l.181.679a.094.094,0,0,1-.073.127Zm-.7-2.571c.317-.054.489-.2.489-.435,0-.362-.281-.552-.77-.552-.6,0-1.005.372-1.077,1.2Z" transform="translate(-153.16 -1275.905)" fill="#fff"/>
      <path id="Path_138" data-name="Path 138" d="M185.1,1277.255a.091.091,0,0,1,.1.1v.7a.091.091,0,0,1-.1.1h-1.014v2.2c0,.308.136.479.353.479a.687.687,0,0,0,.236-.036c.063-.027.108-.018.136.045l.29.616a.1.1,0,0,1-.045.136,1.35,1.35,0,0,1-.616.154,1.258,1.258,0,0,1-1.358-1.394v-2.2h-.444a.091.091,0,0,1-.1-.1v-.7a.091.091,0,0,1,.1-.1h.444v-1.042a.107.107,0,0,1,.082-.109l.806-.271c.072-.018.117.009.117.081v1.341Z" transform="translate(-156.087 -1275.054)" fill="#fff"/>
      <path id="Path_139" data-name="Path 139" d="M189.673,1281.073a.09.09,0,0,1-.1.1h-.806a.09.09,0,0,1-.1-.1v-3.4h-.444a.091.091,0,0,1-.1-.1v-.7a.09.09,0,0,1,.1-.1h1.349a.09.09,0,0,1,.1.1Zm-.009-5.859a.553.553,0,0,1-.6.616.611.611,0,0,1,0-1.223A.55.55,0,0,1,189.664,1275.214Z" transform="translate(-158.26 -1274.579)" fill="#fff"/>
      <path id="Path_140" data-name="Path 140" d="M195.878,1278.236a.108.108,0,0,1-.009.136,6.3,6.3,0,0,0-.408.67l-1.231,2.037a3.234,3.234,0,0,1-.344.49c-.045.054-.027.1.045.1.181,0,.344-.009.5-.009h1.313c.072,0,.109.045.081.109l-.2.707a.109.109,0,0,1-.117.081h-2.98a.117.117,0,0,1-.118-.073.124.124,0,0,1,0-.136,5.975,5.975,0,0,0,.453-.716l1.2-1.983a1.956,1.956,0,0,1,.344-.5c.054-.064.037-.1-.045-.1-.163.009-.335.009-.489.009h-1.3a.091.091,0,0,1-.1-.1v-.7a.09.09,0,0,1,.1-.1h3.179a.146.146,0,0,1,.126.063Z" transform="translate(-159.919 -1275.963)" fill="#fff"/>
      <path id="Path_141" data-name="Path 141" d="M200.039,1278.151a3.356,3.356,0,0,1,.987-.136c1.223,0,1.974.634,1.974,1.73v2.653a.091.091,0,0,1-.1.1h-.453a.11.11,0,0,1-.118-.081l-.073-.281c-.054-.126-.108-.126-.226-.018a1.6,1.6,0,0,1-1.24.48c-1.005,0-1.567-.516-1.567-1.367s.579-1.395,1.648-1.395H202v-.054c0-.552-.353-.851-1.023-.851a2.487,2.487,0,0,0-.706.091l-.326.1a.093.093,0,0,1-.126-.072l-.2-.67a.093.093,0,0,1,.072-.126Zm.833,2.472c-.444,0-.652.208-.652.516,0,.353.244.571.679.571.716,0,1.1-.353,1.1-1.024v-.063Z" transform="translate(-162.577 -1275.905)" fill="#fff"/>
      <path id="Path_142" data-name="Path 142" d="M211.032,1281.119a.09.09,0,0,1-.1.1h-.453c-.064,0-.1-.027-.109-.081l-.1-.381c-.027-.081-.09-.1-.181,0a1.655,1.655,0,0,1-1.259.562c-1.187,0-1.9-.887-1.9-2.3s.76-2.282,2.028-2.282a1.811,1.811,0,0,1,.806.154l.263.118v-2.183a.091.091,0,0,1,.1-.1h.806a.091.091,0,0,1,.1.1Zm-1.268-3.324a1.755,1.755,0,0,0-.742-.154c-.688,0-1.1.516-1.1,1.377s.4,1.385,1.068,1.385,1.042-.57,1.042-1.331v-1.15Z" transform="translate(-165.574 -1274.625)" fill="#fff"/>
      <path id="Path_143" data-name="Path 143" d="M219.447,1280.3a2.1,2.1,0,1,1-2.083-2.282A2.042,2.042,0,0,1,219.447,1280.3Zm-3.179,0c0,.869.408,1.385,1.1,1.385.67,0,1.086-.516,1.086-1.385s-.417-1.377-1.086-1.377C216.676,1278.921,216.268,1279.437,216.268,1280.3Z" transform="translate(-168.819 -1275.905)" fill="#fff"/>
      <path id="Path_144" data-name="Path 144" d="M226.26,1278.821a.09.09,0,0,1-.1.1c-.987.045-1.421.734-1.421,2.4v1.077a.091.091,0,0,1-.1.1h-.806a.09.09,0,0,1-.1-.1v-4.193a.091.091,0,0,1,.1-.1h.453a.11.11,0,0,1,.117.081l.145.516c.054.1.1.117.181.027a1.683,1.683,0,0,1,1.43-.716.091.091,0,0,1,.1.1Z" transform="translate(-172.11 -1275.905)" fill="#fff"/>
      <path id="Path_145" data-name="Path 145" d="M229.617,1278.151a3.363,3.363,0,0,1,.988-.136c1.222,0,1.974.634,1.974,1.73v2.653a.09.09,0,0,1-.1.1h-.453a.109.109,0,0,1-.117-.081l-.073-.281c-.054-.126-.109-.126-.226-.018a1.6,1.6,0,0,1-1.241.48c-1,0-1.566-.516-1.566-1.367s.579-1.395,1.648-1.395h1.132v-.054c0-.552-.353-.851-1.023-.851a2.484,2.484,0,0,0-.706.091l-.326.1a.093.093,0,0,1-.126-.072l-.2-.67a.093.093,0,0,1,.072-.126Zm.833,2.472c-.444,0-.652.208-.652.516,0,.353.244.571.679.571.716,0,1.1-.353,1.1-1.024v-.063Z" transform="translate(-174.081 -1275.905)" fill="#fff"/>
    </g>
  </g>
</svg>
