<svg xmlns="http://www.w3.org/2000/svg" viewBox="0 0 146.436 39.268">
  <g id="Group_49" data-name="Group 49" transform="translate(0 0)">
    <g id="Group_39" data-name="Group 39" transform="translate(0)">
      <path id="Path_43" data-name="Path 43" d="M-773.557,1236.929l-1.468,3.746a.353.353,0,0,1-.36.27h-2.877c-.27,0-.36-.15-.27-.39l5.154-13.154a69.747,69.747,0,0,0,2.307-7.1.316.316,0,0,1,.36-.3h3.685a.314.314,0,0,1,.36.27c.629,2.367,1.439,4.735,2.338,7.132l5.153,13.154c.09.24,0,.39-.27.39h-2.877a.352.352,0,0,1-.359-.27l-1.469-3.746Zm8.24-3.026-1.588-3.925a41.976,41.976,0,0,1-1.708-5.544c-.09-.329-.419-.329-.479,0a39.579,39.579,0,0,1-1.738,5.544l-1.558,3.925Z" transform="translate(778.565 -1219.221)" fill="#474747"/>
      <path id="Path_44" data-name="Path 44" d="M-737.639,1236.992c0,.51.209.809.6.809h.209c.21-.03.33-.03.419.179l.9,2.127a.309.309,0,0,1-.15.45,3.641,3.641,0,0,1-1.378.27c-2.457,0-3.925-1.408-3.925-3.836v-17.649a.3.3,0,0,1,.329-.33h2.667a.3.3,0,0,1,.33.33Z" transform="translate(761.524 -1218.773)" fill="#474747"/>
      <path id="Path_45" data-name="Path 45" d="M-720.939,1245.951a10.955,10.955,0,0,1-2.787.39c-4.584,0-7.1-2.937-7.1-7.611,0-4.644,2.487-7.551,7.191-7.551a9.181,9.181,0,0,1,2.577.36l1.288.359a.311.311,0,0,1,.24.42l-.689,2.247a.293.293,0,0,1-.389.209l-1.019-.27a6.8,6.8,0,0,0-2.007-.33c-2.667,0-3.9,1.708-3.9,4.525,0,2.907,1.288,4.615,3.835,4.615a8.856,8.856,0,0,0,2.218-.33l.988-.3a.313.313,0,0,1,.419.209l.69,2.248a.31.31,0,0,1-.24.419Z" transform="translate(756.929 -1224.287)" fill="#474747"/>
      <path id="Path_46" data-name="Path 46" d="M-703.18,1239.969a.3.3,0,0,1-.33.33h-2.667a.3.3,0,0,1-.329-.33v-11.237h-1.469a.3.3,0,0,1-.329-.329V1226.1a.3.3,0,0,1,.329-.33h4.465a.3.3,0,0,1,.33.33Zm-.03-19.387a1.83,1.83,0,0,1-1.978,2.037,1.852,1.852,0,0,1-2.008-2.037,1.844,1.844,0,0,1,2.008-2.008A1.821,1.821,0,0,1-703.21,1220.583Z" transform="translate(746.721 -1218.575)" fill="#474747"/>
      <path id="Path_47" data-name="Path 47" d="M-682.38,1238.73c0,4.674-2.637,7.611-6.892,7.611-4.285,0-6.922-2.937-6.922-7.611,0-4.614,2.637-7.551,6.922-7.551C-685.017,1231.179-682.38,1234.116-682.38,1238.73Zm-10.517,0c0,2.877,1.348,4.585,3.626,4.585,2.217,0,3.6-1.708,3.6-4.585,0-2.846-1.378-4.555-3.6-4.555C-691.549,1234.175-692.9,1235.884-692.9,1238.73Z" transform="translate(741.233 -1224.287)" fill="#474747"/>
      <path id="Path_48" data-name="Path 48" d="M-665.734,1232.977c.18.36.36.33.69.03a5.374,5.374,0,0,1,4.135-1.828c3.416,0,5.484,2.127,5.484,5.664v8.839a.3.3,0,0,1-.33.33h-2.667a.3.3,0,0,1-.33-.33v-8.48c0-1.888-.989-3.026-2.607-3.026-2.217,0-3.506,1.619-3.506,4.525v6.982a.3.3,0,0,1-.329.33h-2.667a.3.3,0,0,1-.33-.33v-13.874a.3.3,0,0,1,.33-.33h1.5a.317.317,0,0,1,.36.3Z" transform="translate(728.541 -1224.287)" fill="#474747"/>
      <path id="Path_49" data-name="Path 49" d="M-632.252,1245.951a12.578,12.578,0,0,1-3.057.39c-4.525,0-7.071-2.937-7.071-7.581,0-4.674,2.577-7.581,6.952-7.581,3.6,0,5.783,1.8,5.783,4.765,0,2.307-1.409,3.626-4.4,4.075l-4.7.719a3.175,3.175,0,0,0,3.416,2.577,8.124,8.124,0,0,0,2.368-.3l1.318-.33a.31.31,0,0,1,.419.24l.6,2.247a.31.31,0,0,1-.24.42Zm-2.307-8.51c1.049-.18,1.618-.659,1.618-1.439,0-1.2-.928-1.828-2.547-1.828-1.978,0-3.326,1.229-3.566,3.986Z" transform="translate(716.843 -1224.287)" fill="#474747"/>
      <path id="Path_50" data-name="Path 50" d="M-599.272,1220c4.375,0,6.952,2.277,6.952,6.053a5.592,5.592,0,0,1-3.985,5.393c-.389.18-.389.33-.03.539a6.963,6.963,0,0,1,2.877,3.476l2.128,5.094c.09.24-.03.39-.27.39h-2.907a.432.432,0,0,1-.389-.24l-1.618-3.865c-1.109-2.7-2.487-4.075-5.633-4.075h-2.158v7.851a.3.3,0,0,1-.33.33h-2.726a.3.3,0,0,1-.33-.33V1220.33a.3.3,0,0,1,.33-.33Zm-1.229,9.768c3.086,0,4.734-1.229,4.734-3.506,0-1.978-1.348-3.236-3.506-3.236h-5.034v6.742Z" transform="translate(701.122 -1219.221)" fill="#474747"/>
      <path id="Path_51" data-name="Path 51" d="M-571.606,1239.969a.3.3,0,0,1-.33.33H-574.6a.3.3,0,0,1-.33-.33v-11.237H-576.4a.3.3,0,0,1-.33-.329V1226.1a.3.3,0,0,1,.33-.33h4.464a.3.3,0,0,1,.33.33Zm-.03-19.387a1.83,1.83,0,0,1-1.977,2.037,1.852,1.852,0,0,1-2.008-2.037,1.843,1.843,0,0,1,2.008-2.008A1.821,1.821,0,0,1-571.636,1220.583Z" transform="translate(687.089 -1218.575)" fill="#474747"/>
      <path id="Path_52" data-name="Path 52" d="M-554.731,1245.951a10.951,10.951,0,0,1-2.786.39c-4.585,0-7.1-2.937-7.1-7.611,0-4.644,2.487-7.551,7.191-7.551a9.181,9.181,0,0,1,2.577.36l1.289.359a.311.311,0,0,1,.24.42l-.689,2.247a.294.294,0,0,1-.39.209l-1.019-.27a6.8,6.8,0,0,0-2.008-.33c-2.667,0-3.9,1.708-3.9,4.525,0,2.907,1.289,4.615,3.836,4.615a8.849,8.849,0,0,0,2.217-.33l.989-.3a.313.313,0,0,1,.419.209l.689,2.248a.31.31,0,0,1-.24.419Z" transform="translate(681.6 -1224.287)" fill="#474747"/>
      <path id="Path_53" data-name="Path 53" d="M-532.755,1245.951a10.95,10.95,0,0,1-2.786.39c-4.585,0-7.1-2.937-7.1-7.611,0-4.644,2.487-7.551,7.191-7.551a9.182,9.182,0,0,1,2.577.36l1.289.359a.31.31,0,0,1,.24.42l-.689,2.247a.294.294,0,0,1-.39.209l-1.019-.27a6.8,6.8,0,0,0-2.008-.33c-2.667,0-3.9,1.708-3.9,4.525,0,2.907,1.289,4.615,3.836,4.615a8.852,8.852,0,0,0,2.217-.33l.989-.3a.313.313,0,0,1,.42.209l.689,2.248a.31.31,0,0,1-.239.419Z" transform="translate(671.64 -1224.287)" fill="#474747"/>
      <path id="Path_54" data-name="Path 54" d="M-515,1239.969a.3.3,0,0,1-.33.33h-2.667a.3.3,0,0,1-.33-.33v-11.237h-1.468a.3.3,0,0,1-.33-.329V1226.1a.3.3,0,0,1,.33-.33h4.465a.3.3,0,0,1,.33.33Zm-.03-19.387A1.83,1.83,0,0,1-517,1222.62a1.852,1.852,0,0,1-2.007-2.037,1.843,1.843,0,0,1,2.007-2.008A1.821,1.821,0,0,1-515.026,1220.583Z" transform="translate(661.432 -1218.575)" fill="#474747"/>
    </g>
    <g id="Group_45" data-name="Group 45" transform="translate(73.855 23.863)">
      <g id="Group_40" data-name="Group 40" transform="translate(35.3 0.833)">
        <path id="Path_55" data-name="Path 55" d="M-563.737,1281.668c-.042.027-.083.054-.124.08C-563.85,1281.757-563.815,1281.74-563.737,1281.668Z" transform="translate(572.102 -1271.866)" fill="#474747"/>
        <path id="Path_56" data-name="Path 56" d="M-560.545,1281.8c.007.008.015.018.022.024C-560.537,1281.8-560.542,1281.8-560.545,1281.8Z" transform="translate(570.599 -1271.923)" fill="#474747"/>
        <path id="Path_57" data-name="Path 57" d="M-572.573,1285.061h0a.23.23,0,0,0,.025-.009Z" transform="translate(576.05 -1273.399)" fill="#474747"/>
        <path id="Path_58" data-name="Path 58" d="M-578.489,1273.452h0l-.069-.041Z" transform="translate(578.763 -1268.123)" fill="#474747"/>
        <path id="Path_59" data-name="Path 59" d="M-561.352,1278.706a.017.017,0,0,0,.018.006Z" transform="translate(570.965 -1270.523)" fill="#474747"/>
        <path id="Path_60" data-name="Path 60" d="M-561.735,1270.726a.9.9,0,0,0-.027-.125.337.337,0,0,0-.036-.081.069.069,0,0,0-.042-.033.056.056,0,0,0-.046.015.619.619,0,0,0-.112.187c-.044.1-.1.228-.177.395-.038.083-.082.175-.132.276s-.107.211-.173.33c-.131.237-.294.51-.5.813l-.006-.045c-.1.188-.2.355-.3.51l-.266.428c-.166.268-.308.511-.448.779-.088-.012-.2.119-.323.26l-.091.107c-.03.035-.061.068-.09.1s-.058.058-.084.082a.465.465,0,0,1-.074.053l.005-.022a1.186,1.186,0,0,1-.271.272,2.039,2.039,0,0,1-.329.193c-.113.055-.227.1-.336.147a2.628,2.628,0,0,0-.312.152.33.33,0,0,1,.022-.04.17.17,0,0,1,.083-.055,1.759,1.759,0,0,1-.476.141l-.054.006h-.094a.334.334,0,0,1-.039,0,.217.217,0,0,1-.057-.016.046.046,0,0,1-.022-.029,1.04,1.04,0,0,1-.248-.026,1.386,1.386,0,0,1-.266-.09,2.057,2.057,0,0,1-.272-.149,3.112,3.112,0,0,1-.264-.193,6.374,6.374,0,0,1-.472-.435c-.143-.142-.269-.271-.379-.365l.043.017a.95.95,0,0,1-.251-.279,2.952,2.952,0,0,0-.225-.338c0-.023-.008-.048,0-.047a2.285,2.285,0,0,1-.37-.583c-.111-.227-.2-.454-.28-.578l.047-.041q-.037-.079-.072-.159l.012-.023-.014.019c-.01-.023-.02-.046-.03-.069a1.411,1.411,0,0,1,.1-.117.479.479,0,0,0,.1-.16l.062.022c-.018-.024.017-.114.062-.214a2.084,2.084,0,0,0,.119-.29c.1-.056-.09.261-.072.323l.178-.316.047-.083.033-.061.078-.146.068-.126c.028-.052.061-.116.1-.194.121-.36-.1.024-.081-.168.017-.038.034-.075.051-.113l.048-.114c.031-.077.062-.153.1-.231s.068-.156.108-.234.086-.157.136-.238l-.117.076c.054-.146.1-.276.15-.393s.092-.227.139-.327c.024-.05.046-.1.069-.145s.048-.094.072-.138.05-.09.077-.134.052-.089.081-.134l.052-.2c.016-.067.031-.132.045-.194l.041-.183c.014-.059.024-.116.036-.172.021-.112.043-.216.059-.314s.03-.19.043-.274c.024-.17.037-.315.047-.437s.009-.222.006-.3c-.006-.158-.032-.24-.069-.264s-.086.011-.141.081a1.824,1.824,0,0,0-.175.285c-.06.115-.123.242-.177.361s-.1.227-.139.307l-.057.13c-.047.1-.091.2-.133.29s-.085.184-.124.274-.079.176-.115.262l-.108.253c-.036.083-.07.165-.1.247s-.068.161-.1.242l-.048.121-.05.12q-.049.12-.1.243a18.983,18.983,0,0,1-.8,1.766,1.282,1.282,0,0,0-.084-.157c-.156-.469-.665-.826-.768-1.339-.156-.206.19.162.009-.164.075-.04.108.143.139.031-.162-.326-.122-.588-.335-.988l.055-.04a3.073,3.073,0,0,1-.316-.763,1.768,1.768,0,0,0-.28-.623c-.038-.067-.067-.125-.089-.175a.973.973,0,0,1-.048-.131,1.094,1.094,0,0,1-.032-.19.569.569,0,0,0-.05-.189,1.313,1.313,0,0,0-.2-.3l-.027-.134-.031-.134a.43.43,0,0,0-.174-.187.5.5,0,0,1-.179-.212c.028-.009-.024-.1-.068-.169-.011-.017-.021-.034-.028-.049a.143.143,0,0,1-.015-.033c0-.015.01-.014.051.015a2.181,2.181,0,0,0-.382-.439,3.178,3.178,0,0,0-.507-.365,5.252,5.252,0,0,0-.6-.3c-.216-.094-.446-.177-.692-.264a.319.319,0,0,1-.048.009l-.053.007c-.037,0-.076,0-.116,0s-.085,0-.13,0l-.154-.007h-.1c-.041,0-.08,0-.116,0a.951.951,0,0,0-.1.013.256.256,0,0,0-.074.024.408.408,0,0,0-.159-.019c-.021,0-.044,0-.068,0l-.073,0-.073,0c-.023,0-.048,0-.07,0a.674.674,0,0,1-.177,0c-.008,0,0-.013.026-.027a1.315,1.315,0,0,1,.143-.05c.049-.016.137-.019.132,0l.065-.07a1.245,1.245,0,0,0-.22-.012,1.314,1.314,0,0,0-.213.021l-.1.021-.026.006-.025.007-.051.015-.1.033c-.033.011-.066.026-.1.039l-.1.042-.012.006-.132.066c-.016.008-.032.015-.048.025l-.095.052-.048.026-.047.028-.1.056c-.016.009-.032.019-.048.029l-.048.03-.049.029-.05.029.064-.032.063-.032.059-.029.051-.021c.059-.022.081-.022.02.033a2.835,2.835,0,0,0-.476.3l.061-.116a2.975,2.975,0,0,0-.626.588l.062-.026.063-.025c-.036.038-.07.071-.1.1l-.089.091-.078.085-.055.063-.017.021c-.022.029-.044.059-.065.092a1.023,1.023,0,0,0-.056.107c-.009.019-.017.039-.026.06s-.015.044-.021.067a1.026,1.026,0,0,0-.036.154c-.011.1.043.024.084-.03.021-.027.04-.048.043-.038a.089.089,0,0,1-.007.041c-.006.023-.016.058-.032.107s-.055.121-.085.187c-.015.033-.027.067-.04.1s-.029.07-.04.107a4.336,4.336,0,0,0-.137.466,4.9,4.9,0,0,0-.088.5c0,.042-.009.084-.013.125l-.006.062c0,.021,0,.042,0,.062l-.007.122v.131c.037-.033.056,0,.069.057,0,.015.005.032.009.051s.008.039.011.06c.007.042.015.089.023.135l-.063.031c.026.09.045.161.057.219a.957.957,0,0,1,.03.138.362.362,0,0,1,0,.087.385.385,0,0,1-.009.061.343.343,0,0,0,0,.151.693.693,0,0,0,.044.138,1.006,1.006,0,0,0,.042.094c.018.034.039.071.063.112.047.027.093.054.142.077.027.033.051.062.072.09s.021.027.031.039l.027.034a1.141,1.141,0,0,1,.078.114.688.688,0,0,1,.072.158.526.526,0,0,0,.1.16,1.068,1.068,0,0,0,.115.105l.039.031.045.031c.032.021.067.044.106.067-.1-.1-.1-.144-.044-.136a.305.305,0,0,1,.116.054.824.824,0,0,1,.077.057c.027.022.055.05.084.079-.036,0-.07,0-.106-.009a1.147,1.147,0,0,0,.1.069l.077.049a.693.693,0,0,1,.13.1c-.054-.02-.08-.01-.064.024a.164.164,0,0,0,.021.03l.008.009,0,0v0l0,.008a.069.069,0,0,0,.014.015.082.082,0,0,0,.021.013l-.048.015a.277.277,0,0,0-.041.02.26.26,0,0,1,.04-.007l.045-.006a.883.883,0,0,1,.113,0,.045.045,0,0,0,.005.013.1.1,0,0,0,.049.043.734.734,0,0,0,.078.03c.051.017.093.028,0,.028l.008,0h-.017a.2.2,0,0,0-.033,0c-.02,0-.034.009-.036.016s.007.017.036.028a.165.165,0,0,0-.061-.012l-.073,0a.67.67,0,0,1-.069-.006.492.492,0,0,1-.067-.016c.025.008.04.019.044.033s-.01.04-.032.056l-.009.005,0,0h0l0,0-.022.015c-.03.02-.06.039-.088.056l-.021.013-.021.014-.042.025a.737.737,0,0,1-.077.039l.036-.039a2.4,2.4,0,0,0-.536.5,2.827,2.827,0,0,0-.348.585,4.254,4.254,0,0,0-.209.62c-.012.053-.025.106-.038.16,0,.014-.007.027-.009.041l-.008.041-.016.082-.017.082c-.006.028-.009.055-.014.083-.009.056-.02.112-.03.169.038-.019.043.092.051.191a.408.408,0,0,0,.024.122c.011.027.027.033.051.005,0,.028.007.055.01.083s0,.055.009.082c.007.055.013.109.019.162,0,.026.007.053.01.079l.01.079c0,.026.005.052.009.078l.012.077c.012.1.032.2.049.3s.041.186.07.272a1.852,1.852,0,0,0,.091.239.537.537,0,0,0,.027.053c.009.018.019.034.028.05l.029.047.015.022.016.021a.824.824,0,0,0,.066.076l.034.033.037.028a.473.473,0,0,0,.076.043.342.342,0,0,0,.08.025c.034.04.064.076.09.11s.052.062.073.09l.058.077c.018.024.033.046.047.067a1.107,1.107,0,0,0,.182.226l-.09-.051a3.189,3.189,0,0,0,.426.278l.091.048.086.042c.056.028.11.049.162.072s.1.042.155.062.1.038.158.055.11.036.171.052l.094.026.1.024a1.034,1.034,0,0,0,.343-.034l.09-.013a.994.994,0,0,1,.106-.008c.039,0,.083,0,.132,0l.079,0,.043,0,.048,0a.384.384,0,0,0-.046.019c-.01.005-.014.009-.015.013s0,.006.011.008a.189.189,0,0,0,.034,0,.919.919,0,0,0,.114,0l.07,0,.072-.008a.572.572,0,0,0-.072.016c-.017.005-.025.01-.021.015s.02.011.051.015a1.129,1.129,0,0,0,.144.007.73.73,0,0,1,.135-.06s.014.005.01.012a1.6,1.6,0,0,0,.165-.051.168.168,0,0,0,.054-.026c0-.009-.045,0-.116.01,0-.01-.009-.018-.056-.023a1.181,1.181,0,0,0,.275-.038c.1-.025.193-.056.28-.087.174-.062.312-.119.348-.083a4.835,4.835,0,0,0,.551-.306c.165-.106.316-.214.458-.323.285-.218.539-.438.814-.669.094-.01-.013.127-.172.266.136-.1.268-.213.4-.323.02.029-.032.083-.1.142s-.164.124-.224.176a2.832,2.832,0,0,0,.746-.587,5.875,5.875,0,0,1,.76-.691l.068-.143.037-.023c-.022-.019.063-.16.13-.243.057-.015.081.011.122.009s.1-.033.219-.167a.939.939,0,0,0,.115-.1c.121.223.241.427.353.607.256.381.507.785.795,1.189a7.417,7.417,0,0,0,.47.6,4.189,4.189,0,0,0,.586.556,2.646,2.646,0,0,0,.769.418,2.147,2.147,0,0,0,.456.1l.059.006.059,0c.041,0,.076,0,.113,0,.073,0,.146,0,.219-.008a2.839,2.839,0,0,0,.426-.068,2.8,2.8,0,0,0,.4-.129l.095-.04.107-.051c.028-.013.055-.028.081-.043s.055-.029.08-.045a2.984,2.984,0,0,0,.324-.218.41.41,0,0,0,.117-.083c.037-.036.064-.069.06-.074.126-.087.247-.179.363-.275s.227-.2.335-.3.211-.21.31-.319c.05-.054.1-.11.147-.166s.1-.112.141-.17l.015-.019.043-.055.068-.088.087-.119c.064-.09.14-.2.22-.322s.165-.263.25-.414a7.809,7.809,0,0,0,.478-1.007,5.8,5.8,0,0,0,.305-1.052A2.646,2.646,0,0,0-561.735,1270.726Zm-8.861,1.4c-.111.132-.229.254-.342.366-.229.225-.446.413-.667.6s-.447.369-.708.577c-.13.1-.27.215-.422.334s-.319.247-.5.382a10.31,10.31,0,0,1-1.126.668c-.1.047-.191.091-.285.131s-.189.076-.281.107a2.246,2.246,0,0,1-.52.111.5.5,0,0,1-.057.02c-.022.005-.048.009-.073.013a1.037,1.037,0,0,1-.163.007,1.894,1.894,0,0,1-.362-.052c-.123-.029-.245-.067-.359-.106s-.221-.079-.321-.108l-.026-.033-.013-.016-.012-.017-.048-.067c-.032-.012-.064-.027-.1-.043a.914.914,0,0,1-.105-.066l-.036-.031a.265.265,0,0,1-.033-.032.518.518,0,0,1-.033-.04.321.321,0,0,1-.028-.043l.019-.006a.785.785,0,0,1-.206-.208c-.014-.019-.025-.038-.037-.056s-.023-.034-.032-.051a.468.468,0,0,0-.054-.079h.021l-.008-.013-.007-.014-.013-.027-.027-.054c-.016-.037-.032-.075-.048-.112l.04.03a1.5,1.5,0,0,1-.168-.519l-.005-.035,0-.035,0-.043c0-.046-.007-.122-.007-.168v-.069c0-.026,0-.052.005-.078l0-.048a.6.6,0,0,1,.008-.07l-.079.023c.035-.184.07-.33.1-.46.01-.032.019-.063.027-.094,0-.015.008-.031.013-.045l.014-.044.032-.1.022-.056c.008-.018.014-.037.022-.056l.019-.039.038-.079.046-.078c.009-.016.026-.041.036-.055l.016-.022.029-.039.015-.019.016-.018c.023-.025.046-.05.071-.076l.083-.073c.03-.024.063-.047.1-.071l.006.02a.533.533,0,0,1,.032-.045l.033-.044a.862.862,0,0,1,.071-.081l.05-.05.028-.023.042-.036.011-.008a.062.062,0,0,1,.014-.011l.042-.027.083-.053.041-.026a.435.435,0,0,1,.043-.025l.18-.087.022-.011.026-.009.051-.018.1-.036a1.642,1.642,0,0,1,.223-.058l.022-.024a.25.25,0,0,1,.019-.068l.01-.025.02-.051.01-.025,0-.013,0-.01.039-.08,0-.01,0-.008.009-.016.018-.032a1.075,1.075,0,0,1,.122-.176.2.2,0,0,1,.05-.042l.012-.005v0l-.025-.015-.022-.019c-.011-.009-.023-.022-.037-.035l-.005,0,0-.006-.011-.012c-.008-.008-.016-.015-.024-.024.026.026.026.019.025.008a.114.114,0,0,1,0-.021c0-.007,0-.011,0-.01l-.009-.017,0-.009,0-.011-.018-.043,0-.01,0-.014-.009-.026-.009-.026,0-.013,0-.007,0-.008-.019-.064-.01-.031,0-.008,0-.01,0-.02-.02-.077-.01-.037c0-.013-.007-.028-.01-.042l-.2-.056-.025-.006-.012,0-.01,0-.04-.014-.077-.027-.141-.048-.11-.042c-.034-.013-.065-.022-.093-.03l-.039-.009-.033-.007a.1.1,0,0,0-.086.013l-.075-.051-.033-.023-.008-.005-.005,0-.008-.007c-.022-.019-.039-.035-.053-.049a.222.222,0,0,1-.032-.036.11.11,0,0,1-.015-.029c-.01-.033.009-.05.013-.085-.01.012-.032.013-.061,0a.5.5,0,0,1-.106-.057.625.625,0,0,1-.062-.047c-.021-.017-.044-.036-.066-.056l-.063-.063-.031-.033-.029-.034.044.034.046.032-.03-.031-.015-.016-.014-.016-.055-.064c-.019-.021-.035-.044-.052-.066l-.051-.067-.047-.069c-.015-.024-.032-.046-.045-.071-.028-.049-.059-.1-.083-.147-.009.029-.019.058-.027.088s-.015.059-.022.09a.426.426,0,0,1-.045-.176.117.117,0,0,1,.021-.067.077.077,0,0,0,.014-.059.238.238,0,0,0-.016-.057c0-.013-.011-.026-.016-.041s-.013-.033-.021-.053l-.1.036c-.009-.031-.016-.062-.023-.091s-.009-.06-.013-.089l-.005-.043c0-.014,0-.036,0-.05s0-.051,0-.077,0-.054,0-.08.005-.053.009-.079l.01-.076c0-.009,0-.017,0-.025l.028-.125c0-.013.005-.025.009-.037l.01-.04c.014-.052.027-.106.043-.16l.022-.082.024-.084c.015-.057.032-.115.048-.175.019-.127.038-.255.067-.378a3.46,3.46,0,0,1,.1-.365,2.649,2.649,0,0,1,.136-.342c.006-.014.012-.028.019-.041l.021-.04c.014-.026.027-.054.043-.079l.045-.077.049-.074a2.171,2.171,0,0,1,.222-.271,1.979,1.979,0,0,1,.268-.223l.074-.048c.025-.016.051-.03.077-.044l.039-.022.04-.019.04-.02.041-.019.084-.035a.373.373,0,0,1,.043-.016l.043-.015c.057-.022.119-.036.178-.054a3.138,3.138,0,0,1,.767-.083,3.441,3.441,0,0,1,.387.028,2.7,2.7,0,0,1,.369.077c.03.009.06.017.089.027l.086.03.085.034c.028.011.055.025.083.037a2.254,2.254,0,0,1,.312.178,2.215,2.215,0,0,1,.275.225,2.419,2.419,0,0,1,.238.263c0,.037,0,.075,0,.113-.03.051.085.116.2.2s.237.177.215.237l.043.04.042.042c.028.028.057.055.084.084.018.066.069.2-.011.11.026.047.047.081.066.109a.637.637,0,0,0,.049.068c.031.038.062.067.114.128.009.04.016.081.024.121s.015.08.022.121c.169.4.349.768.528,1.15a11.309,11.309,0,0,1,.508,1.231,14.933,14.933,0,0,0,.74,2.142c.075.179.153.359.232.535Zm-5.1-1.628.021.014-.014-.008Z" transform="translate(578.933 -1263.741)" fill="#474747"/>
      </g>
      <g id="Group_44" data-name="Group 44" transform="translate(0 0)">
        <g id="Group_43" data-name="Group 43">
          <g id="Group_41" data-name="Group 41" transform="translate(0 0.036)">
            <path id="Path_61" data-name="Path 61" d="M-639.369,1266.238c-.038,0-.061.021-.067.065v.033l.066,0Z" transform="translate(641.655 -1264.075)" fill="#474747"/>
            <path id="Path_62" data-name="Path 62" d="M-642.311,1278.772v-.018C-642.321,1278.754-642.319,1278.761-642.311,1278.772Z" transform="translate(642.96 -1269.748)" fill="#474747"/>
            <path id="Path_63" data-name="Path 63" d="M-642.307,1278.8l.01,0-.009-.012Z" transform="translate(642.956 -1269.763)" fill="#474747"/>
            <path id="Path_64" data-name="Path 64" d="M-635.827,1271.406a2.8,2.8,0,0,0,.206-.351c0-.039-.021-.061-.065-.068l.034-.066q0-.116-.493-.176a.26.26,0,0,0-.133.031,2.872,2.872,0,0,0-.462-.077,2.987,2.987,0,0,1-.464.023l-.1,0-.334.092h-.066a5.425,5.425,0,0,0-.236-1.321q-.114-.491-.288-2.018a4.317,4.317,0,0,1-.436-1.292,11.205,11.205,0,0,0-.937-2.661q-.273-.006-.419-.531c-.2-.049-.3-.095-.3-.139a1.015,1.015,0,0,1-.192-.3l.034-.066c0-.022-.021-.034-.066-.034l0-.066.068-.1-.066,0c-.08.109-.136.162-.169.162l.028.2-.034.065-.1-.068-.067.032a.658.658,0,0,1-.208.426l0,.067.032.067q-.066,0-.069.156a.253.253,0,0,1,.1.035l-.071.23.1.2h-.033a.5.5,0,0,0,.094.267v.033a.029.029,0,0,1-.033.032.386.386,0,0,1-.171.228.058.058,0,0,0,.065.068l-.068.1a.029.029,0,0,1-.032-.034.261.261,0,0,1-.133.03q-.163.262-.271.259c0,.016.01.025.033.026-.038.2-.084.3-.139.295a.208.208,0,0,0,.031.1l-.038.2.032.067-.067.031a5.007,5.007,0,0,1-.185.915l.032.067a1.342,1.342,0,0,0-.073.33.029.029,0,0,1,.032.034c-.022,0-.045.032-.068.1l.032.067h-.033a.248.248,0,0,0,.031.1,1.833,1.833,0,0,1-.142.428l0,.1.16.235-.037.19.032.067-.037.2-.01.463-.038.2a4.616,4.616,0,0,0-.411.645l.065.034-.1.13,0,.166.1,0v.033h-.066l0,.165q-.013.6-.178.592a.262.262,0,0,0,.03.133c-.03.11-.064.164-.1.164,0,.016.01.025.033.025a.2.2,0,0,1-.16.192c.045.054.172.164.143.18a.261.261,0,0,0-.132-.036l-.143,0c-.221,0,.475.077.472.209q-.282.094-.394.143a.084.084,0,0,0-.042.112c-.175.2.069.356-.047.354l0,.1-.034.066a.264.264,0,0,1,.1.035l.067-.031.032.067v.033l-.1,0v.067h.066a.312.312,0,0,1,.018.026l.077,0-.043.057,0,0-.021.028.028,0a.141.141,0,0,1-.088.135l-.045.026h-.066v.029c-.093.016-.218.041-.018.08l-.034.065v.066l.032.067a.029.029,0,0,0-.034.032l.032.067c-.039,0-.061.021-.068.065a.088.088,0,0,1,.1.1c-.039,0-.062.054-.07.164a.029.029,0,0,1-.032-.034l-.067.032q.041.4.124.4l-.034.066-.1,0c-.057.065-.1.1-.135.1l0,.058.1,0v.033l-.034.065a.267.267,0,0,1,.164.07.059.059,0,0,1-.068.064l0-.066c-.039,0-.061.021-.068.065l0,.1.066,0v.033h-.066l-.006.265-.274.458a.315.315,0,0,1,.194.2l-.037.165q.079.209.161.227l0-.066h.033v.033l-.034.066q.389.008.943-.733a10.389,10.389,0,0,0,.512-2.282c.21-.029.39-.058.54-.088.3-.1.464-.153.492-.163.044,0,.066.021.065.059a.253.253,0,0,0,.1-.031l.066.035a2.651,2.651,0,0,0,.332-.051l-.032-.067v-.033a.029.029,0,0,1,.032.034,2.724,2.724,0,0,1,.565-.121.252.252,0,0,0,.1.036,1.221,1.221,0,0,0,.3-.093.029.029,0,0,0,.032.034h.033l.1-.064h.033c.088.051.131.1.13.135q.2,0,.259.3a.03.03,0,0,0-.034.033l0,.1c0,.044.031.067.1.068a.2.2,0,0,1-.035.1q.017.365.091.366l-.068.1.032.067a.03.03,0,0,0,.034-.033.259.259,0,0,0,.1.036l0,.066-.066,0a.263.263,0,0,0,.03.133l-.034.065,0,.1h.033v-.066h.033v.033l-.037.165c.044,0,.1.046.162.136a.205.205,0,0,1-.035.09l.03.133v.033c-.044,0-.065-.045-.063-.134h-.066v.033l.032.067a.029.029,0,0,0-.034.032l0,.066.03.166a.029.029,0,0,0-.033.032q.2,0,.19.369a.03.03,0,0,0,.034-.033l.132,0v.033l-.1,0a1.055,1.055,0,0,0,.09.432,1.024,1.024,0,0,1,.319.594l.166-.03.066,0q.192.3.358.306a.249.249,0,0,1,.035-.1l.066.034h.033a3.292,3.292,0,0,0,.149-.75,1.166,1.166,0,0,0-.188-.5l.007-.3c0-.039-.021-.061-.065-.068l.035-.066v-.066a.551.551,0,0,0-.061-.266c.044,0,.068-.051.07-.155q-.022-.531-.154-.566-.085-1.053-.194-1.751h.033a.262.262,0,0,1,.132.036l.168-.129h.033l.066.035,0-.066h.033v.033l-.034.065.066.035h.066c0-.044.034-.066.1-.064a.029.029,0,0,0-.032-.034.268.268,0,0,0,.035-.1h.033c.044,0,.066.035.065.1l.1,0a4.923,4.923,0,0,1,.735-.282l-.03-.166Zm-6.559,1.389h0Zm-.536.106s-.01.006-.026.009A.033.033,0,0,1-642.922,1272.9Zm.536-.137.929-7.505,0,.1-.066-.034C-641.523,1265.286-641.5,1265.264-641.456,1265.26Zm-.306,1.906q-.1.2-.137.2h-.033l.107-.362.066,0Zm.279-.656c-.066,0-.1.02-.1.064v.033l.03.166a.238.238,0,0,0-.133.063c-.039,0-.061-.023-.065-.068v-.033l.066,0v-.033l-.03-.166.066,0,0-.1-.032-.058.067-.032h.033c.066.035.1.066.1.093Zm-.026-.356h-.033a.256.256,0,0,0,.035-.1l.066,0Zm-.06-.266c0-.038.023-.06.067-.065h.033l0,.132Zm.068-.1h-.033a.251.251,0,0,0-.031-.1c.044,0,.067-.032.068-.1l.066,0Zm1.351.327h.033l0,.132h-.066Zm-.037.165.066,0,0,.132h-.033a.208.208,0,0,0-.031-.1Zm-.3-1.587h.033a.246.246,0,0,0,.031.1h-.066Zm-.063-.167v.066a.258.258,0,0,0-.1-.035l0-.132Q-640.545,1264.477-640.547,1264.526Zm-.154-.533.066,0a.25.25,0,0,0-.036.1h-.033Zm-.036.132.066,0,0,.1.03.166h-.033c-.038,0-.06-.023-.065-.068l.037-.165A.029.029,0,0,1-640.737,1264.125Zm-.124-.433h.033l0,.1-.066,0A.247.247,0,0,0-640.86,1263.692Zm1.807,6.859a.029.029,0,0,1-.032-.034l-.067.032a3.634,3.634,0,0,0,.056.5,19.645,19.645,0,0,1-2.158.277,9.091,9.091,0,0,1,.257-1.178,4.751,4.751,0,0,0,.433-1.671.029.029,0,0,1-.032-.034.03.03,0,0,0,.034-.033l0-.165.3-1.509q.358.24.355.405a4.069,4.069,0,0,1,.441,1.027,1.612,1.612,0,0,1-.039.3l.032.067-.069.164.032.067a.367.367,0,0,1-.07.164l.029.2,0,.165h.033l0,.1a.43.43,0,0,0,.158.359c.062.178.115.267.16.268.054.311.106.466.155.467Zm.994,4.6h-.033l0-.1h.066A.248.248,0,0,0-638.059,1275.15Z" transform="translate(643.493 -1262.283)" fill="#474747"/>
            <path id="Path_65" data-name="Path 65" d="M-642.253,1281.28" transform="translate(642.931 -1270.893)" fill="#474747"/>
          </g>
          <path id="Path_66" data-name="Path 66" d="M-628.385,1262.469a1.584,1.584,0,0,1,1.166.738,2.947,2.947,0,0,1,.438,1.639,2.307,2.307,0,0,1-.2.887l.062.1q-.083,0-.255.653a.244.244,0,0,1-.135.061l0,.1.067-.031v.033a.058.058,0,0,1-.069.063.029.029,0,0,0-.032-.034c-.045.175-.092.261-.142.26a.029.029,0,0,1-.032-.034l-.443.349h-.033c.007-.044.03-.066.069-.064a.261.261,0,0,1-.028-.133l-.1.062.031.067c-.065.131-.112.2-.139.194h-.033v-.033l.036-.065h-.033l-.1.063-.066,0,0-.066.065.036.035-.065,0-.033-.066,0v-.033c.091-.1.138-.161.139-.193q-.1-.484-.247-.506a.5.5,0,0,0,.073-.2.247.247,0,0,0-.029-.1,1.76,1.76,0,0,0,.044-.3.058.058,0,0,0-.063-.068.03.03,0,0,1-.034.032l-.063-.1,0-.132a.029.029,0,0,1,.034-.032.03.03,0,0,0-.032-.035l.045-.33.009-.265a3.159,3.159,0,0,0-.073-.731h-.033q-.339-.012-.8,1.892a31.5,31.5,0,0,0-.4,3.855.249.249,0,0,1,.1-.03v.033a9.655,9.655,0,0,1,1.826-.1l0,.033.068-.031c.11,0,.165.028.163.072l.067-.031.132,0c.044.007.065.03.064.068l.067-.031h.033a.324.324,0,0,1,.325.177.03.03,0,0,1-.034.032l.031.067-.155.624a1.461,1.461,0,0,0-.438.216l-.1,0,.035-.064-.065-.036a.713.713,0,0,0-.076.262h-.033a.245.245,0,0,0-.062-.134l.036-.065-.132,0c0,.089-.038.131-.1.129l-.128-.1q0,.132-.47.182a.262.262,0,0,0-.1-.036,3.609,3.609,0,0,1-.668.142.265.265,0,0,0-.131-.038h-.033a.69.69,0,0,0-.272.189c-.066,0-.1.008-.1.03q0,.083-.051.495a.246.246,0,0,1,.03.1.029.029,0,0,1-.034.032l.025.233c0,.127-.006-.142-.029-.115.014.227.043-.288.039-.161l-.032.878c-.005.154,0,.4.007.729h-.033l.031.067-.03.827.026.2a.261.261,0,0,0-.037.1.557.557,0,0,1,.057.267l-.019.529a.029.029,0,0,1-.034.032l.031.067-.025.695-.04.2a1.21,1.21,0,0,1,.056.267q-.118.757-.225.753l0-.066-.066,0c0,.066-.026.1-.07.1q-.148-.031-.287-.308l-.165-.006-.067.031a5.249,5.249,0,0,1-.225-1.134l.1,0v-.033l-.132,0a.03.03,0,0,1-.034.032,1.7,1.7,0,0,0-.022-.3h.033a.255.255,0,0,0,.1.036l0-.066a.058.058,0,0,1-.063-.068h-.033l-.067.031,0-.066.066,0,0-.033-.131-.038,0-.132c.042-.109.1-.162.171-.159l-.154-.337a.03.03,0,0,0,.034-.032.248.248,0,0,0-.1-.037c0-.044.036-.065.1-.063l0-.066a.029.029,0,0,0-.032-.034l.036-.065.008-.232c-.044,0-.066-.013-.065-.035l0-.1h-.033l0-.1a.029.029,0,0,1,.034-.032l-.031-.067,0-.066a.258.258,0,0,1,.038-.131.088.088,0,0,0-.1-.1.26.26,0,0,1,.038-.131,1.757,1.757,0,0,1-.022-.3l.045-.33-.067.031h-.033v-.033c0-.033.036-.065.1-.1a.693.693,0,0,0-.148-.5v-.033l.065.035h.033v-.033l-.066,0,.036-.065.01-.265.026.181a.058.058,0,0,1-.063-.068l0-.066a.26.26,0,0,1,.038-.131.262.262,0,0,1-.028-.134c0-.016.014-.082.04-.2a.058.058,0,0,1-.064-.068v-.033c.055-.13.09-.2.107-.195l-.083.473-.334.054a.059.059,0,0,0-.063-.068.26.26,0,0,1-.037.1l-.065-.036c-.089.008-.134.04-.136.095h-.033a.059.059,0,0,1-.064-.068l-.067.031-.773.277c0-.066-.006-.36-.159-.409l.066-.229.545.051a.262.262,0,0,1-.1-.037l0,.066-.033,0c-.027,0-.069-.057-.126-.17v-.033c.088,0-.171.109-.165-.045-.038-.167.249-.437.249-.448-.247.391-.377.155-.354.156l-.111-.119-.161-.352c.293-.15,1.5-.353,1.923-.508l0-.157a.766.766,0,0,1-.025-.232c.016,0,.063-.064.139-.194l0-.1a.26.26,0,0,1-.1-.037l.1-.162,0-.066-.1,0,.167-1.876a.262.262,0,0,1-.028-.133c.038,0,.075-.086.109-.261a.243.243,0,0,1-.03-.1,3.126,3.126,0,0,0,.16-.756h.033l-.031-.067v-.033a2.233,2.233,0,0,1,.227-.787l-.031-.067a7.209,7.209,0,0,1,1.271-2.207q.477-.348.483-.546A1.168,1.168,0,0,1-628.385,1262.469Zm-3.517,9.408v.033a.255.255,0,0,1,.1.037l.035-.065v-.033A.262.262,0,0,1-631.9,1271.877Zm.17-.126c0,.044.025.067.064.069h.033a.059.059,0,0,0-.063-.069Zm3.867-9a3.551,3.551,0,0,1,.475.613l.1.069h.033c-.061-.156-.135-.237-.223-.24v-.033a.029.029,0,0,1,.034-.032l-.222-.273C-627.69,1262.792-627.755,1262.757-627.865,1262.753Zm.627.983,0,.1a.259.259,0,0,1-.038.131.676.676,0,0,1,.155.3l-.072.163c0,.1.06.179.19.238v-.033a.263.263,0,0,1-.03-.1H-627a.534.534,0,0,1-.058-.233.26.26,0,0,0,.038-.131c-.065-.025-.1-.092-.092-.2l.007-.2Zm-.052,2.383-.038.131v.033h.033l.038-.131v-.033Zm.121-.592,0,.066-.04.2v.033h.033a.268.268,0,0,1,.072-.163l0-.132Zm.054-.594-.038.131,0,.066h.033a.338.338,0,0,1,.039-.164v-.033Zm-.045.33,0,.132c0,.044.025.067.063.068l.036-.065,0-.066a.058.058,0,0,1-.063-.068Zm.235.4.066,0,0,.1-.066,0Z" transform="translate(638.857 -1262.331)" fill="#474747"/>
          <path id="Path_67" data-name="Path 67" d="M-619.223,1271.447a1.65,1.65,0,0,1,1.441.726,1.54,1.54,0,0,1,.312.868h-.033a1.2,1.2,0,0,1,.06.266,2.9,2.9,0,0,1-.287,1.054.784.784,0,0,0-.173.327l.029.2q0,.116-.306.391c0,.055-.1.163-.305.324a2.123,2.123,0,0,1-.839.545,4.334,4.334,0,0,1-1.068.407q.025,1.54.458,1.831l.364.008a11.857,11.857,0,0,0,1.826-1.749.672.672,0,0,1,.336-.224l0,.1.067-.032.066,0,.061.233-.037.165c.152.114.228.182.228.2l-.486,1.016a.088.088,0,0,1-.1-.1h-.033l0,.066a.259.259,0,0,0,.1.036v.033c-.091.153-.148.229-.17.228h-.033l0-.1h-.066v.033a.029.029,0,0,0,.032.034l-.034.066v.033l.066,0a.088.088,0,0,1-.1.1v.033l.1,0v.033a.058.058,0,0,1-.068.064.03.03,0,0,0-.032-.034c0,.033-.034.066-.1.1l-.066-.035a.058.058,0,0,1-.068.065.058.058,0,0,0-.065-.067.8.8,0,0,1-.241.392.03.03,0,0,1,.033.034l-.166,0,.032.067h-.033l-.066-.034q0,.034-.2.161a.263.263,0,0,1,.031.1l-.067.032-.065-.034q0,.083-.337.257l-.066-.034-.133.03-.1,0-.1.1q-1.025-.088-1.021-.254h-.033l0,.066-.55-.608-.067.031a.058.058,0,0,1-.065-.067v-.066h.066v-.033c-.061,0-.125-.1-.192-.3h.033l-.189-.468c0-.11-.019-.166-.063-.167a.029.029,0,0,1,.034-.032.725.725,0,0,0-.092-.333c.021-.176.044-.264.072-.264l-.062-.2.034-.065c-.045-.222-.087-.333-.126-.334h-.066l-.067.032q0-.157-.424-.274l-.032-.067h.033l.066.035h.033v-.033h-.066l.034-.066a.059.059,0,0,0-.065-.068c-.044,0-.067.026-.067.065l-.2-.037v-.033l.034-.066c-.088,0-.132-.036-.13-.1l.067-.031v.066h.066a.058.058,0,0,0,.067-.064l.165.037h.066c0-.072.08-.136.236-.193q.056-.3.271-.292a.468.468,0,0,1,.038-.231.058.058,0,0,1-.065-.067h.066l0-.2.037-.165h-.066l0-.132q.133,0,.135-.1l-.032-.067a.252.252,0,0,0,.036-.1l-.029-.166q.049,0,.236-.226c-.031-.089-.063-.134-.1-.135a.658.658,0,0,1,.137-.2l-.064-.1c.058-.153.1-.229.137-.229l0,.066h.033v-.033l-.032-.067q.064-.263.138-.262l-.032-.067a2.626,2.626,0,0,0,.377-.588c.05,0,.129-.108.239-.326.038,0,.14-.1.3-.291a1.748,1.748,0,0,0,.47-.321A2.534,2.534,0,0,1-619.223,1271.447Zm-3.349,4.861.1,0v.066h-.033A.059.059,0,0,1-622.572,1276.308Zm2.322-.182,0,.066.166-.029v-.033Zm.13-1.421a1.9,1.9,0,0,0,1.149-1.068,1.2,1.2,0,0,0,.174-.426q0-.124-.326-.239-.422-.009-.958,1.47A.85.85,0,0,0-620.121,1274.706Zm.537,1.2h-.033l-.066-.034a.4.4,0,0,0-.138.262.454.454,0,0,0,.267-.126h.033l.065.034a.477.477,0,0,1,.369-.224l0-.066c-.11,0-.165-.014-.165-.037A.573.573,0,0,1-619.584,1275.909Zm.733-.217.066,0a.2.2,0,0,0,.137-.2h.033a.029.029,0,0,1,.032.034q.057,0,.169-.162c.088,0,.133-.019.134-.063v-.066h-.033Q-618.84,1275.586-618.851,1275.693Z" transform="translate(634.099 -1266.4)" fill="#474747"/>
          <path id="Path_68" data-name="Path 68" d="M-604.913,1272.6l.066.008a.431.431,0,0,0,.413.479.982.982,0,0,0,.124.381l.069-.026q.18.021.035,1.47a2.622,2.622,0,0,1,.025.669l-.048.128.019.136-.051.161a2.036,2.036,0,0,1,.032.6l-.033,0,.025.069-.011.1a.029.029,0,0,1-.037.029q.029.253,0,1.532l-.033,0,.025.069-.1.888.055.106a.029.029,0,0,1-.037.029.03.03,0,0,0,.029.037q-.066.292-.1.289l.025.07q-.064.426-.114.42l.026.069q-.089.49-.22.475l-.062-.04a.058.058,0,0,1-.073.058,1.529,1.529,0,0,0-.57-.264,2.812,2.812,0,0,1-.134-.581.029.029,0,0,0,.037-.03l-.1-.011.015-.132.033,0,.062.04,0-.033-.117-.147-.069.026-.033,0c.055-.094.1-.144.15-.15a.029.029,0,0,0,.029.036.029.029,0,0,1,.037-.029,1.134,1.134,0,0,1-.135-.282l.066.007.022-.2a.088.088,0,0,1-.087-.11l.04-.062a.251.251,0,0,1-.022-.1.03.03,0,0,0,.037-.03.253.253,0,0,0-.1-.044l.051-.161a.254.254,0,0,0-.022-.1l.048-.128a.644.644,0,0,0-.062-.34l.033,0a.927.927,0,0,0-.058-.373.029.029,0,0,1,.037-.029l-.026-.069.008-.066.04-.062a.058.058,0,0,1-.058-.073.058.058,0,0,0,.073-.059l.008-.065a2.359,2.359,0,0,1-.022-.4l.033,0,0-.033-.033,0a.251.251,0,0,1-.1.022l-.026-.069.037-.329c.01-.043.034-.062.073-.058l-.026-.069c.01-.044.034-.063.073-.058a.03.03,0,0,0-.03-.037c.062-.16.094-.245.1-.256a.356.356,0,0,1-.048-.172l.033,0a2.265,2.265,0,0,1-.054-.406.252.252,0,0,0,.044-.1.347.347,0,0,1-.223-.391.539.539,0,0,0-.04-.238l.04-.062a.751.751,0,0,1-.04-.237l.041-.062-.026-.069.04-.062-.018-.135a1.783,1.783,0,0,0,.07-.325.087.087,0,0,0,.11-.087l-.062-.041c.037-.129.066-.192.088-.19l-.026-.069,0-.033.077-.091-.026-.069a.223.223,0,0,1,.212-.11.254.254,0,0,1,.19-.212l.033,0-.007.065.066.007.069-.025-.025-.069.011-.1.062.04.033,0Zm-.663,1.458.015.168-.066-.007a.964.964,0,0,1,.007.234l.033,0a.245.245,0,0,1,.139-.051l.007-.065-.066-.008.059-.226-.062-.041Zm-.092.523-.007.066a.029.029,0,0,0,.029.037l-.04.062-.015.132.066.008a.336.336,0,0,1,.051-.161l-.033,0,.04-.062a.059.059,0,0,0-.059-.073Zm.22-1.075a.058.058,0,0,1-.073.058l-.007.066.066.007a.254.254,0,0,1,.044-.1l0-.033Zm-.051.161,0,.033c0,.044.02.069.058.073l.033,0a.239.239,0,0,1-.022-.1Zm.1-.255,0,.033.062.04.033,0,0-.033A.249.249,0,0,1-605.4,1273.415Z" transform="translate(626.426 -1266.924)" fill="#474747"/>
          <path id="Path_69" data-name="Path 69" d="M-595.046,1268.915h.033l0,.066.1-.064a.406.406,0,0,1,.194.236l-.034.065q0,.1.294.172v.033l-.037.2a.259.259,0,0,1,.031.1c-.018.088-.041.131-.069.131a.252.252,0,0,1,.031.1,3.567,3.567,0,0,1-.079.594l.032.067a3.844,3.844,0,0,0-.252.6l0,.1h-.066l0-.066.034-.066-.066,0a.214.214,0,0,1-.069.131c.05,0,.081.057.1.167a.03.03,0,0,0-.034.033.268.268,0,0,0,.132.036v.033c-.033,0-.09.064-.17.195-.044,0-.066-.012-.065-.035v-.033h-.033c0,.066-.024.1-.068.1l.032.067,0,.1h-.066v.066l.066,0,0,.066a.261.261,0,0,1-.036.131l0,.1-.066,0,.031.067v.033l-.066-.034c-.035.132-.081.2-.136.2.042.073-.354.765-.355.826h-.066l.03.166a1.582,1.582,0,0,0-.172.294h-.033l.1.167q-.125.022-.311.589c-.022,0-.045.032-.068.1l.066,0,0,.066q-.14,0-.241.425l.029.166q-.209.087-.415.819-.137.229-.171.228l.032.067v.033q-.176.088-.484.95l.032.067,0,.132q-.6,1.113-1.017,1.1l-.166,0q-.778-.016-1.309-2.246h.033c0-.11-.1-.256-.322-.437l.037-.164a1.547,1.547,0,0,0-.125-.367l.034-.066c-.019-.155-.05-.233-.095-.234l.037-.165a2.843,2.843,0,0,1-.087-.531.029.029,0,0,1,.033-.032l-.054-.564h.033l-.032-.067,0-.165a.029.029,0,0,1,.034-.033l-.032-.067a.029.029,0,0,1,.034-.032l-.032-.067.006-.265a.087.087,0,0,0,.1-.1l-.1-.167a.059.059,0,0,0,.068-.065l-.031-.133.034-.066-.032-.067a.21.21,0,0,0,.036-.1l-.03-.166c.044,0,.067-.054.07-.164l-.066,0,0-.066c.061,0,.107-.1.139-.3.11,0,.167-.1.172-.294.044,0,.067-.043.069-.131h.066c0,.066.02.1.064.1h.033l0-.132h-.033a.975.975,0,0,0,.038-.231h.033l.065.034a.206.206,0,0,0,.035-.1l.1,0-.068.1,0,.066.066,0-.038.231c.138.246.257.37.357.372a2.4,2.4,0,0,1,.216.733h.033l.067-.032a.088.088,0,0,0,.1.1,32.161,32.161,0,0,0,.32,3.616h.066c.948-2.027,1.922-3.932,2.089-4.464l.881-2.14A1.642,1.642,0,0,1-595.046,1268.915Zm-5.091,3.611a.263.263,0,0,1-.036.132l.066.034,0-.166Zm.022.5a.267.267,0,0,1-.069.164.268.268,0,0,1,.03.133h.033l.037-.165,0-.132Zm.073-.329c0,.044-.034.065-.1.064v.033l.1,0,.034-.066v-.033Zm-.08.661-.034.065v.033c.044,0,.066.035.064.1h.033l0-.132A.059.059,0,0,0-600.122,1273.355Zm-.049.727v.033q.028.241.027.266l-.036.132a.387.387,0,0,1,.062.2l-.068.1v.033a.212.212,0,0,1,.1.035l.1-.163,0-.1c-.055,0-.087-.057-.1-.167.022,0,.056-.043.1-.131Q-599.974,1274.177-600.17,1274.082Zm.075-.429a.4.4,0,0,1-.037.2l.066,0,.037-.165v-.033Zm-.064,1.455,0,.066c0,.111.024.166.062.167l-.037.165,0,.2.1,0v-.033l-.031-.133a.207.207,0,0,0,.036-.1.209.209,0,0,1-.031-.1h.033C-600.078,1275.188-600.121,1275.109-600.159,1275.109Zm.273-3.5c.01.045.032.067.065.068h.033a.058.058,0,0,0-.065-.067Z" transform="translate(623.962 -1265.253)" fill="#474747"/>
          <path id="Path_70" data-name="Path 70" d="M-588.171,1274.548l.067.031.3-.01c0,.05.157.077.466.083a.227.227,0,0,1,.227-.14.029.029,0,0,1,.034.032l.065-.035.265-.009q.212.39.377.384.048.2.377.352a1.735,1.735,0,0,1,.043.3c.008.232,0,.475-.008.729a5.925,5.925,0,0,1,.055.628,2.533,2.533,0,0,1-.049.5,2.608,2.608,0,0,1,.046.363,1.714,1.714,0,0,1-.023.3q.062,1.795.64,2.23l.206.225a.383.383,0,0,1,.073.2v.033a.56.56,0,0,1-.255.274h-.033l-.067-.031a1.82,1.82,0,0,1-.224.24,1.586,1.586,0,0,0-.6-.178l0-.066.031-.067-.066,0a.57.57,0,0,0-.2.073.24.24,0,0,0-.071-.13l0-.1.1,0v-.033a.746.746,0,0,1-.338-.187l.031-.067a.029.029,0,0,1-.034-.032h.033q0-.058-.173-.226l-.039-.165a.029.029,0,0,0,.032-.034q-.166.006-.214-.456h.033c-.033-.154-.091-.229-.173-.226.02-.067.041-.1.063-.1a.259.259,0,0,1-.037-.1.247.247,0,0,0,.029-.1.059.059,0,0,1-.068-.064.029.029,0,0,1,.032-.034,1.19,1.19,0,0,1-.075-.262.059.059,0,0,0,.064-.068v-.033l-.132,0c0,.033-.031.067-.1.1l-.068-.031a3.048,3.048,0,0,1-.409.61l.036.065a1.136,1.136,0,0,0-.315.474.26.26,0,0,1,.038.131h-.033l-.067-.031q-.251.407-.383.411l.036.065v.033a2.773,2.773,0,0,1-.837.724,2.323,2.323,0,0,1-.689.189l-.067-.031a.387.387,0,0,1-.2.073,2.132,2.132,0,0,1-.366-.053l-.065.035q-.6-.136-.61-.409-.215.007-.418-.615l0-.1a.03.03,0,0,1,.032-.035l-.072-.163a6.315,6.315,0,0,1,.454-2.2.269.269,0,0,0,.091-.235.387.387,0,0,1-.073-.2l0-.066a9.387,9.387,0,0,0,.565-.914,4.43,4.43,0,0,1,1.6-1.372l.01.058a.059.059,0,0,0,.064-.069l-.066,0c0-.044.025-.067.064-.068h.033l0,.1.159-.2a.262.262,0,0,0,.133.029,1.686,1.686,0,0,1,.39-.212c0-.022.021-.034.065-.036l.233.025A.262.262,0,0,0-588.171,1274.548Zm-2.964,2.421V1277h.033q.386-.319.378-.543A3.417,3.417,0,0,0-591.135,1276.968Zm3.046-1,.067.031a5.8,5.8,0,0,1-1.031.83,5.01,5.01,0,0,0-1.469,2.568v.033q.018.529.217.522.439-.015,1.652-2.044.374-.692.712-1.449a1.675,1.675,0,0,0,.367-.874h-.033a.58.58,0,0,0-.293.175C-587.964,1275.766-588.028,1275.835-588.089,1275.969Zm-2.441.283,0,.1a.32.32,0,0,0,.322-.276c.218-.073.325-.166.322-.276a.264.264,0,0,1-.037-.1,5.946,5.946,0,0,0-.577.55Zm.838-.691v.033l.132,0a.25.25,0,0,1,.1-.037l0-.066h-.033A.289.289,0,0,1-589.693,1275.561Zm.192-.172h.033a.059.059,0,0,0,.064-.069h-.033Q-589.5,1275.331-589.5,1275.389Zm.162-.1a.262.262,0,0,1-.029.133h.033c.033,0,.076-.047.128-.137Zm.163-.072v.033h.033c.153-.066.228-.113.227-.141l-.166.006C-589.112,1275.11-589.145,1275.144-589.175,1275.212Zm.327-.11v.033l.132,0v-.033Zm.29-.242-.031.067h.033a.252.252,0,0,1,.1-.037v-.033Z" transform="translate(620.121 -1267.784)" fill="#474747"/>
          <g id="Group_42" data-name="Group 42" transform="translate(16.315)">
            <path id="Path_71" data-name="Path 71" d="M-610.4,1268.343l.008-.077a.141.141,0,0,0-.013.067Z" transform="translate(612.18 -1264.959)" fill="#474747"/>
            <path id="Path_72" data-name="Path 72" d="M-611.489,1276.312l-.032.066.3.226a3.162,3.162,0,0,0,.4-.335l.337-.811.014-.051h-.006a13.3,13.3,0,0,1-.143-2.5l0-.464-.034-.066a.03.03,0,0,0,.033-.034v-.1l-.034-.066h.033c-.005-.541-.043-2.768.036-3.685a.03.03,0,0,1-.033-.033c.033,0,.043-1.138.052-1.337a1.618,1.618,0,0,1,.332.063.258.258,0,0,1,.132-.034h.033l.1.065c0-.066.021-.1.065-.1h.066l.067.032v-.033l.067.032h.1l.066-.034a.029.029,0,0,0,.033.033.254.254,0,0,1,.032-.1c.044,0,2.891-.124,2.892-.08l.066-.034.067.032a.265.265,0,0,0,.031-.132c.033,0,.067.043.1.131.066,0,.143-.057.23-.168l.9.018v.132h.067a.277.277,0,0,1,.2-.267v.066h-.066v.1h.017a.144.144,0,0,0,.088-.031,1.659,1.659,0,0,1,.268-.179.149.149,0,0,0,.086-.134l0-.142a.142.142,0,0,1,.028-.087l.041-.056a.143.143,0,0,0,.028-.088v-.116a.139.139,0,0,0-.016-.064l-.019-.036a.029.029,0,0,0,.033-.033v-.033c0-.063-.094-.106-.279-.127a.141.141,0,0,0-.051,0h0a.151.151,0,0,1-.106-.01c-.064-.028-1.071-.065-1.29-.074a2.144,2.144,0,0,1-.4.037l-2.991.114a.029.029,0,0,1-.032.033.03.03,0,0,0-.034-.033h-.1c-.164,0-.377-.006-.636-.022a11.891,11.891,0,0,0,.1-1.933.238.238,0,0,0-.067-.131l-.066.033a.357.357,0,0,0-.068-.165l.031-.2-.067-.1,0-.265a.7.7,0,0,1-.166-.064q-.144-.3-.2-.3a1.17,1.17,0,0,1,.063-.266h-.066v-.033q0-.066.1-.067v-.066h-.066c-.044,0-.066.034-.065.1h-.1l.032-.067h-.066a.948.948,0,0,1-.031.233H-611c-.032.067-.065.1-.1.1s-.067-.032-.067-.1a.352.352,0,0,0-.2.333c-.121,0-.209.113-.261.333a.029.029,0,0,1,.033.033v.033c0,.066-.043.1-.131.1a.254.254,0,0,0,.035.132c-.01.154-.042.232-.1.232l.034.066v.066c-.071.078-.047-.146-.144.484a.029.029,0,0,1,.033.033,1.855,1.855,0,0,0-.064.232.254.254,0,0,0,.034.1h-.033a1.786,1.786,0,0,1-.092.663.971.971,0,0,0,.053.214c.028-.132.066-.228.113-.2l-.017.178a.054.054,0,0,1,.052-.033.03.03,0,0,0-.033-.033,2.008,2.008,0,0,1,.031-.2h.033l.035.165-.032.132a.03.03,0,0,1,.033.033q-.05,0-.1.233c-.039,0-.061-.021-.067-.066s.021-.061.066-.067a.235.235,0,0,0-.029-.089l0,.044h-.1l.007-.039-.037.019.011.021h-.01l-.166.035a.029.029,0,0,0-.033-.033.261.261,0,0,0-.1.034l-.431-.062a.6.6,0,0,0-.4.137l.034.066v.066a.625.625,0,0,0-.264.135.76.76,0,0,1-.161.4l-.066-.032h-.066v.066l.034.066a.029.029,0,0,0-.033.033v.033a.263.263,0,0,1,.1.032.029.029,0,0,1,.033-.033.252.252,0,0,0,.034.1c-.022,0-.044.033-.065.1q.2.329.3.327l-.032.067h.033l.066-.033q0,.108.862.156a.263.263,0,0,0,.1-.035c0,.044.056.066.166.065l.012,1.138a4.128,4.128,0,0,0-.157.8v.033l.035.165c-.022,0-.033.033-.032.1l.034.066h-.033a.263.263,0,0,0,.034.132l-.065.1.034.165-.066.034a.029.029,0,0,0,.033.033c-.02.155-.031.243-.03.265s.085,1.532.107,1.532v.1a.029.029,0,0,0,.033.033q0,.2-.1.2l.1.165a.253.253,0,0,1-.1.034v.033h.066v.066l-.032.166.067.032a.029.029,0,0,1-.033.033,1.229,1.229,0,0,0,.069.264c-.027,0-.049.078-.063.233a5.847,5.847,0,0,1-.04.883c.022,0,.141-.762.14-.785h.066l-.107.784h-.066a6.451,6.451,0,0,1,.176.958l-.032.166c.023.066.045.1.067.1.03.243.075.364.137.363a.266.266,0,0,1-.032.1A3.077,3.077,0,0,0-611.489,1276.312Zm1.042-10.55h0C-610.451,1265.724-610.45,1265.731-610.448,1265.762Zm-.681-3.144a.058.058,0,0,1,.067.065h-.033c-.039,0-.061-.021-.067-.066Zm-.389.832h.033v.033c0,.066-.021.1-.065.1Zm-.126.6a.264.264,0,0,0,.064-.166l.067.032q-.063.266-.13.266Zm.068.165a.264.264,0,0,0,.034.132c-.022,0-.033.022-.032.066h-.033a.264.264,0,0,0-.034-.132Q-611.642,1264.221-611.576,1264.212Zm-.128.432c.033,0,.077-.046.131-.134v.066l.044-.478h-.066Zm-.106-.661h.066l-.032.133h-.033Zm.026.979.128-.4a.264.264,0,0,0-.034-.132.26.26,0,0,0,.032-.133.3.3,0,0,1,.168.264l-.131.1a.385.385,0,0,0,.068.2c-.087.105-.131.172-.13.2h-.066A.263.263,0,0,0-611.783,1264.961Zm-1.3,2.021a.253.253,0,0,0-.1.034l-.033-.066h.132Zm.133.032h-.033c-.039,0-.061-.021-.067-.065h.1Zm.1-.067a.058.058,0,0,1-.065.067v-.033q0-.058.066-.067Zm.3.162-.033-.066-.066.034h-.033a.271.271,0,0,0-.034-.132l-.066.034h-.033v-.066a.26.26,0,0,1,.133.032l.066-.034.1.065.066-.034a.25.25,0,0,0,.034.1C-612.423,1267.069-612.467,1267.092-612.555,1267.109Zm.331.03h-.1c0-.039.021-.061.066-.067h.033Zm.253-1.116a.058.058,0,0,1-.063.067c.005-.042.022-.235.051-.415l.009.017Z" transform="translate(613.655 -1262.217)" fill="#474747"/>
            <path id="Path_73" data-name="Path 73" d="M-610.563,1268.3c0,.021-.009.043-.013.065l.029-.015Z" transform="translate(612.26 -1264.973)" fill="#474747"/>
          </g>
        </g>
      </g>
    </g>
    <g id="Group_46" data-name="Group 46" transform="translate(20.067 30.613)">
      <path id="Path_74" data-name="Path 74" d="M-740.51,1279.57l-.4,1.013a.1.1,0,0,1-.1.073h-.778c-.073,0-.1-.04-.073-.105l1.394-3.557a18.75,18.75,0,0,0,.624-1.921.086.086,0,0,1,.1-.081h1a.085.085,0,0,1,.1.073c.17.64.389,1.28.632,1.928l1.394,3.557c.024.065,0,.105-.073.105h-.778a.1.1,0,0,1-.1-.073l-.4-1.013Zm2.229-.818-.43-1.061a11.45,11.45,0,0,1-.462-1.5c-.024-.089-.113-.089-.13,0a10.734,10.734,0,0,1-.47,1.5l-.422,1.061Z" transform="translate(741.865 -1274.757)" fill="#474747"/>
      <path id="Path_75" data-name="Path 75" d="M-729.909,1279.587c0,.138.057.219.162.219h.057c.057-.008.089-.008.113.049l.243.575a.084.084,0,0,1-.04.122.986.986,0,0,1-.373.073.961.961,0,0,1-1.061-1.037v-4.773a.081.081,0,0,1,.089-.089H-730a.081.081,0,0,1,.089.089Z" transform="translate(736.853 -1274.636)" fill="#474747"/>
      <path id="Path_76" data-name="Path 76" d="M-726.84,1276a1.312,1.312,0,0,1,1.41-1.442,1.537,1.537,0,0,1,.535.1l.146.049a.092.092,0,0,1,.057.114l-.195.6a.08.08,0,0,1-.106.057l-.13-.041a.8.8,0,0,0-.308-.057c-.316,0-.511.235-.511.624v.527h.908a.081.081,0,0,1,.089.089v.624a.081.081,0,0,1-.089.089h-.908v3.039a.081.081,0,0,1-.089.089h-.721a.081.081,0,0,1-.089-.089v-3.039h-.4a.081.081,0,0,1-.089-.089v-.624a.081.081,0,0,1,.089-.089h.4Z" transform="translate(735.275 -1274.562)" fill="#474747"/>
      <path id="Path_77" data-name="Path 77" d="M-721.425,1278.137a3.01,3.01,0,0,1,.883-.122c1.094,0,1.767.568,1.767,1.548v2.374a.081.081,0,0,1-.089.089h-.405a.1.1,0,0,1-.106-.073l-.065-.252c-.049-.113-.1-.113-.2-.016a1.427,1.427,0,0,1-1.11.429c-.9,0-1.4-.462-1.4-1.224s.518-1.248,1.475-1.248h1.013v-.049c0-.494-.316-.762-.916-.762a2.224,2.224,0,0,0-.632.081l-.291.089a.084.084,0,0,1-.114-.065l-.178-.6a.083.083,0,0,1,.065-.113Zm.745,2.212c-.4,0-.583.187-.583.462,0,.316.219.511.608.511.64,0,.989-.316.989-.916v-.057Z" transform="translate(732.931 -1276.127)" fill="#474747"/>
      <path id="Path_78" data-name="Path 78" d="M-713.194,1276a2.385,2.385,0,0,1-.13.908c-.04.113.033.17.13.081a1.341,1.341,0,0,1,1.07-.462c1.061,0,1.7.786,1.7,2.042a1.821,1.821,0,0,1-1.872,2.058,2.511,2.511,0,0,1-1.013-.2l-.713-.292a.112.112,0,0,1-.073-.105v-5.21a.081.081,0,0,1,.089-.089h.721a.081.081,0,0,1,.089.089Zm.235,3.671a1.666,1.666,0,0,0,.664.138c.616,0,.981-.461.981-1.24s-.357-1.232-.941-1.232c-.648,0-.948.519-.948,1.207v1.013Z" transform="translate(729.278 -1274.636)" fill="#474747"/>
      <path id="Path_79" data-name="Path 79" d="M-703.367,1282.01a3.381,3.381,0,0,1-.826.105,1.824,1.824,0,0,1-1.913-2.05,1.817,1.817,0,0,1,1.88-2.05c.972,0,1.564.487,1.564,1.289,0,.624-.381.98-1.191,1.1l-1.272.195a.858.858,0,0,0,.924.7,2.189,2.189,0,0,0,.64-.081l.356-.089a.083.083,0,0,1,.113.065l.162.608a.084.084,0,0,1-.065.114Zm-.624-2.3c.284-.049.438-.178.438-.389,0-.324-.252-.494-.689-.494-.535,0-.9.333-.964,1.078Z" transform="translate(725.658 -1276.127)" fill="#474747"/>
      <path id="Path_80" data-name="Path 80" d="M-696.285,1277.105a.081.081,0,0,1,.089.089v.624a.081.081,0,0,1-.089.089h-.908v1.969c0,.275.122.429.316.429a.615.615,0,0,0,.211-.032c.056-.024.1-.017.121.04l.259.551a.087.087,0,0,1-.04.121,1.2,1.2,0,0,1-.551.138,1.126,1.126,0,0,1-1.215-1.248v-1.969h-.4a.081.081,0,0,1-.089-.089v-.624a.081.081,0,0,1,.089-.089h.4v-.932a.1.1,0,0,1,.073-.1l.721-.243c.065-.016.105.008.105.073v1.2Z" transform="translate(722.246 -1275.136)" fill="#474747"/>
      <path id="Path_81" data-name="Path 81" d="M-691.605,1280.393a.081.081,0,0,1-.089.089h-.721a.081.081,0,0,1-.089-.089v-3.039h-.4a.081.081,0,0,1-.089-.089v-.624a.081.081,0,0,1,.089-.089h1.207a.081.081,0,0,1,.089.089Zm-.008-5.243a.5.5,0,0,1-.535.551.5.5,0,0,1-.543-.551.5.5,0,0,1,.543-.543A.492.492,0,0,1-691.614,1275.15Z" transform="translate(719.714 -1274.582)" fill="#474747"/>
      <path id="Path_82" data-name="Path 82" d="M-685.605,1278.229a.1.1,0,0,1-.008.121,5.571,5.571,0,0,0-.365.6l-1.1,1.823a2.893,2.893,0,0,1-.308.438c-.041.049-.025.089.04.089.162,0,.308-.008.446-.008h1.175c.064,0,.1.04.073.1l-.178.632a.1.1,0,0,1-.106.073H-688.6a.1.1,0,0,1-.106-.065.111.111,0,0,1,0-.121,5.348,5.348,0,0,0,.405-.64l1.078-1.774a1.747,1.747,0,0,1,.308-.446c.049-.057.033-.089-.04-.089-.146.008-.3.008-.437.008h-1.167a.081.081,0,0,1-.089-.089v-.624a.081.081,0,0,1,.089-.089h2.844a.131.131,0,0,1,.113.056Z" transform="translate(717.782 -1276.194)" fill="#474747"/>
      <path id="Path_83" data-name="Path 83" d="M-681.163,1278.137a3,3,0,0,1,.883-.122c1.094,0,1.767.568,1.767,1.548v2.374a.081.081,0,0,1-.089.089h-.405a.1.1,0,0,1-.106-.073l-.065-.252c-.049-.113-.1-.113-.2-.016a1.428,1.428,0,0,1-1.11.429c-.9,0-1.4-.462-1.4-1.224s.518-1.248,1.475-1.248h1.013v-.049c0-.494-.316-.762-.915-.762a2.224,2.224,0,0,0-.632.081l-.292.089a.083.083,0,0,1-.113-.065l-.178-.6a.084.084,0,0,1,.065-.113Zm.745,2.212c-.4,0-.583.187-.583.462,0,.316.219.511.607.511.64,0,.989-.316.989-.916v-.057Z" transform="translate(714.684 -1276.127)" fill="#474747"/>
      <path id="Path_84" data-name="Path 84" d="M-670.516,1280.446a.081.081,0,0,1-.089.089h-.405c-.057,0-.089-.024-.1-.073l-.089-.341c-.025-.073-.081-.089-.162,0a1.481,1.481,0,0,1-1.126.5c-1.062,0-1.7-.794-1.7-2.058s.681-2.042,1.815-2.042a1.621,1.621,0,0,1,.721.138l.235.105v-1.953a.081.081,0,0,1,.089-.089h.721a.081.081,0,0,1,.089.089Zm-1.135-2.974a1.571,1.571,0,0,0-.664-.138c-.616,0-.989.462-.98,1.232s.357,1.24.956,1.24.932-.51.932-1.191v-1.029Z" transform="translate(711.192 -1274.636)" fill="#474747"/>
      <path id="Path_85" data-name="Path 85" d="M-662.108,1280.057a1.827,1.827,0,0,1-1.863,2.058,1.829,1.829,0,0,1-1.872-2.058,1.824,1.824,0,0,1,1.872-2.042A1.822,1.822,0,0,1-662.108,1280.057Zm-2.844,0c0,.778.365,1.24.981,1.24.6,0,.972-.461.972-1.24s-.373-1.232-.972-1.232C-664.588,1278.825-664.953,1279.287-664.953,1280.057Z" transform="translate(707.41 -1276.127)" fill="#474747"/>
      <path id="Path_86" data-name="Path 86" d="M-655.122,1278.736a.081.081,0,0,1-.089.089c-.883.041-1.272.657-1.272,2.148v.964a.081.081,0,0,1-.089.089h-.721a.081.081,0,0,1-.089-.089v-3.751a.081.081,0,0,1,.089-.089h.405a.1.1,0,0,1,.105.073l.13.462c.049.089.089.1.162.024a1.507,1.507,0,0,1,1.28-.64.081.081,0,0,1,.089.089Z" transform="translate(703.575 -1276.127)" fill="#474747"/>
      <path id="Path_87" data-name="Path 87" d="M-651.585,1278.137a3.012,3.012,0,0,1,.884-.122c1.094,0,1.766.568,1.766,1.548v2.374a.081.081,0,0,1-.089.089h-.405a.1.1,0,0,1-.1-.073l-.065-.252c-.049-.113-.1-.113-.2-.016a1.429,1.429,0,0,1-1.11.429c-.9,0-1.4-.462-1.4-1.224s.518-1.248,1.475-1.248h1.013v-.049c0-.494-.316-.762-.915-.762a2.221,2.221,0,0,0-.632.081l-.292.089a.083.083,0,0,1-.113-.065l-.178-.6a.083.083,0,0,1,.064-.113Zm.746,2.212c-.4,0-.583.187-.583.462,0,.316.219.511.607.511.64,0,.989-.316.989-.916v-.057Z" transform="translate(701.278 -1276.127)" fill="#474747"/>
    </g>
  </g>
</svg>
