<svg xmlns="http://www.w3.org/2000/svg" viewBox="0 0 17.431 17.515">
  <path id="Path_33" data-name="Path 33" d="M38.451,23.525A8.681,8.681,0,0,0,24.791,34l-1.231,4.5,4.6-1.207a8.67,8.67,0,0,0,4.147,1.056h0a8.683,8.683,0,0,0,6.139-14.819ZM32.312,36.878h0a7.2,7.2,0,0,1-3.672-1.006l-.263-.156-2.73.716.729-2.662L26.2,33.5a7.214,7.214,0,1,1,6.111,3.381Zm3.957-5.4c-.217-.109-1.283-.633-1.482-.706s-.343-.108-.488.109-.56.706-.687.85-.253.163-.47.054A5.923,5.923,0,0,1,31.4,30.707a6.542,6.542,0,0,1-1.206-1.5c-.126-.217,0-.323.1-.443a6.137,6.137,0,0,0,.542-.742.4.4,0,0,0-.018-.38c-.054-.109-.488-1.176-.668-1.61s-.355-.366-.488-.372-.271-.008-.416-.008a.8.8,0,0,0-.578.271,2.432,2.432,0,0,0-.759,1.809,4.219,4.219,0,0,0,.885,2.243,9.667,9.667,0,0,0,3.7,3.274,12.408,12.408,0,0,0,1.236.457,2.973,2.973,0,0,0,1.366.086,2.234,2.234,0,0,0,1.464-1.031,1.812,1.812,0,0,0,.126-1.031C36.63,31.639,36.486,31.584,36.269,31.476Z" transform="translate(-23.56 -20.98)" fill="#4e4e4e" fill-rule="evenodd"/>
</svg>
