<svg xmlns="http://www.w3.org/2000/svg" viewBox="0 0 418.86 420.88"><defs><style>.cls-1{fill:#fff;fill-rule:evenodd;}</style></defs><g id="Camada_2" data-name="Camada 2"><g id="WhatsApp_Logo" data-name="WhatsApp Logo"><g id="WA_Logo" data-name="WA Logo"><path class="cls-1" d="M357.83,61.16A207.16,207.16,0,0,0,210.31,0C95.35,0,1.79,93.55,1.75,208.54A208.1,208.1,0,0,0,29.59,312.8L0,420.88l110.56-29a208.29,208.29,0,0,0,99.66,25.39h.09c114.94,0,208.51-93.56,208.55-208.55A207.29,207.29,0,0,0,357.83,61.16ZM210.31,382h-.07A173.09,173.09,0,0,1,122,357.87l-6.33-3.75L50.07,371.33l17.52-64-4.13-6.56A173,173,0,0,1,37,208.55C37,113,114.76,35.22,210.38,35.22A173.37,173.37,0,0,1,383.65,208.69C383.61,304.27,305.85,382,210.31,382Zm95.08-129.83c-5.21-2.61-30.83-15.21-35.61-17s-8.25-2.61-11.72,2.61-13.46,16.95-16.5,20.43-6.08,3.91-11.29,1.3-22-8.11-41.91-25.86c-15.49-13.82-26-30.88-29-36.1s-.32-8,2.29-10.64c2.34-2.33,5.21-6.08,7.81-9.13s3.48-5.21,5.21-8.69.87-6.52-.43-9.13-11.73-28.26-16.07-38.69c-4.23-10.16-8.52-8.79-11.72-9-3-.15-6.52-.18-10-.18a19.15,19.15,0,0,0-13.9,6.52c-4.77,5.22-18.23,17.82-18.23,43.47s18.67,50.43,21.27,53.91,36.75,56.11,89,78.69a301.59,301.59,0,0,0,29.71,11c12.48,4,23.84,3.41,32.82,2.07,10-1.5,30.83-12.61,35.18-24.78s4.34-22.61,3-24.78S310.6,254.82,305.39,252.21Z"/></g></g></g></svg>